<svg xmlns="http://www.w3.org/2000/svg" width="15" height="16" viewBox="0 0 15 16">
    <path fill="#000" fill-rule="nonzero" d="M10.492 7.815c-.184-.061-.246-.246-.184-.369 0-.061.061-.061.061-.123.8-.8 1.293-1.846 1.293-3.015C11.662 1.908 9.754 0 7.354 0a4.281 4.281 0 0 0-4.308 4.308c0 1.169.492 2.277 1.292 3.015.062.062.062.062.062.123.062.185 0 .308-.185.37C.954 8.984.585 12.122.585 15.322c0 .37.246.615.615.615h1.23c.37 0 .616-.246.616-.615 0-4.246.616-5.538 4.308-5.538 3.692 0 4.308 1.292 4.308 5.538 0 .37.246.615.615.615h1.23c.37 0 .616-.246.616-.615 0-3.2-.37-6.338-3.63-7.508zM7.354 6.092c-1.046 0-1.846-.8-1.846-1.846S6.308 2.4 7.354 2.4 9.2 3.2 9.2 4.246s-.8 1.846-1.846 1.846z"/>
</svg>
