<svg xmlns="http://www.w3.org/2000/svg" width="28" height="32" viewBox="0 0 28 32">
    <path fill="#000" fill-rule="nonzero" d="M25.846 2.462h-5.538c-.37 0-.616-.247-.616-.616v-.615C19.692.492 19.2 0 18.462 0H16c-.738 0-1.23.492-1.23 1.23v.616c0 .37-.247.616-.616.616h-1.23c-.37 0-.616-.247-.616-.616v-.615C12.308.492 11.815 0 11.077 0H8.615c-.738 0-1.23.492-1.23 1.23v.616c0 .37-.247.616-.616.616H1.231C.492 2.462 0 2.954 0 3.692V30.77C0 31.508.492 32 1.23 32h24.616c.739 0 1.23-.492 1.23-1.23V3.691c0-.738-.491-1.23-1.23-1.23zm-3.692 24c0 .369-.246.615-.616.615h-16c-.369 0-.615-.246-.615-.615V8c0-.37.246-.615.615-.615H6.77c.37 0 .616.246.616.615v.615c0 .739.492 1.231 1.23 1.231h2.462c.738 0 1.23-.492 1.23-1.23V8c0-.37.247-.615.616-.615h1.23c.37 0 .616.246.616.615v.615c0 .739.493 1.231 1.231 1.231h2.462c.738 0 1.23-.492 1.23-1.23V8c0-.37.246-.615.616-.615h1.23c.37 0 .616.246.616.615v18.462z"/>
</svg>
