<svg xmlns="http://www.w3.org/2000/svg" width="13" height="16" viewBox="0 0 13 16">
    <g fill="#000" fill-rule="nonzero">
        <circle cx="6.154" cy="6.154" r="1.231"/>
        <path d="M6.154 0C2.769 0 0 2.77 0 6.154 0 7.508.43 8.8 1.23 9.846l4.432 5.908c.123.123.307.246.492.246.184 0 .37-.123.492-.246l4.43-5.908c.8-1.046 1.232-2.277 1.232-3.692C12.308 2.769 9.538 0 6.154 0zm2.954 8.37L6.4 12l-.062.062c-.123.123-.307.061-.43-.062L3.2 8.37c-.492-.616-.738-1.416-.738-2.216a3.703 3.703 0 0 1 3.692-3.692 3.703 3.703 0 0 1 3.692 3.692c0 .8-.246 1.6-.738 2.215z"/>
    </g>
</svg>
