<svg xmlns="http://www.w3.org/2000/svg" width="24" height="17" viewBox="0 0 24 17">
    <path fill="#000" fill-rule="nonzero" d="M12 .01C6.545.01 1.855 3.394 0 8.194c1.855 4.8 6.545 8.181 12 8.181s10.145-3.381 12-8.181C22.145 3.393 17.455.01 12 .01zm0 13.637c-3.055 0-5.455-2.4-5.455-5.454 0-3.055 2.4-5.455 5.455-5.455s5.455 2.4 5.455 5.455c0 3.054-2.4 5.454-5.455 5.454zm0-8.727c-1.855 0-3.273 1.418-3.273 3.273 0 1.854 1.418 3.272 3.273 3.272 1.855 0 3.273-1.418 3.273-3.272 0-1.855-1.418-3.273-3.273-3.273z"/>
</svg>
