<svg xmlns="http://www.w3.org/2000/svg" width="16" height="15" viewBox="0 0 16 15">
    <g fill="#000" fill-rule="nonzero">
        <path d="M15.385 3.108H12.8c-.308 0-.554-.185-.615-.493l-.37-1.538C11.754.83 11.508.585 11.2.585H4.8c-.308 0-.554.184-.615.492l-.37 1.538c-.061.247-.307.493-.615.493H.615c-.369 0-.615.246-.615.615v9.846c0 .37.246.616.615.616h14.77c.369 0 .615-.247.615-.616V3.723c0-.37-.246-.615-.615-.615zm-1.847 8.307c0 .185-.123.308-.307.308H2.769c-.184 0-.307-.123-.307-.308V5.877c0-.185.123-.308.307-.308h2.585c.123 0 .246-.123.308-.246l.492-1.97c.061-.122.184-.245.308-.245h3.076c.124 0 .247.123.308.246l.492 1.97c.062.122.185.245.308.245h2.585c.184 0 .307.123.307.308v5.538z"/>
        <circle cx="8" cy="8.031" r="2.462"/>
    </g>
</svg>
