<svg xmlns="http://www.w3.org/2000/svg" width="32" height="28" viewBox="0 0 32 28">
    <path fill="#000" fill-rule="nonzero" d="M30.77 0H1.23C.493 0 0 .492 0 1.23v24.616c0 .739.492 1.23 1.23 1.23h29.54c.738 0 1.23-.491 1.23-1.23V1.231C32 .492 31.508 0 30.77 0zM20.43 6.03l-4.06 2.955a.785.785 0 0 1-.74 0L11.57 6.03a.608.608 0 0 1 .368-1.108h8.124c.615 0 .861.739.369 1.108zM4.924 21.539V8.492c0-.492.615-.738.985-.492l9.354 6.77c.492.368.984.368 1.476 0L26.092 8c.37-.246.985 0 .985.492v13.046c0 .37-.246.616-.615.616H5.538c-.369 0-.615-.246-.615-.616z"/>
</svg>
