<svg xmlns="http://www.w3.org/2000/svg" width="16" height="16" viewBox="0 0 16 16">
    <g fill="#000" fill-rule="nonzero">
        <path d="M8 0C3.57 0 0 3.57 0 8s3.57 8 8 8 8-3.57 8-8-3.57-8-8-8zm0 13.538A5.515 5.515 0 0 1 2.462 8 5.515 5.515 0 0 1 8 2.462 5.515 5.515 0 0 1 13.538 8 5.515 5.515 0 0 1 8 13.538z"/>
        <path d="M10.462 6.77h-.924c-.184 0-.307-.124-.307-.308V4.308c0-.37-.246-.616-.616-.616h-1.23c-.37 0-.616.246-.616.616v4.307c0 .37.246.616.616.616h3.077c.369 0 .615-.246.615-.616v-1.23c0-.37-.246-.616-.615-.616z"/>
    </g>
</svg>
