<svg xmlns="http://www.w3.org/2000/svg" width="16" height="16" viewBox="0 0 16 16"><g fill="#000" fill-rule="nonzero"><circle cx="10.904" cy="4.741" r="1.185"/><path d="M15.052 0H8.296a.538.538 0 0 0-.415.178L.178 7.88a.573.573 0 0 0 0 .83l6.755 6.756a.573.573 0 0 0 .83 0l7.704-7.704a.538.538 0 0 0 .177-.415V.593c0-.356-.237-.593-.592-.593zm-1.778 6.519c0 .059-.06.177-.06.237l-5.629 5.63a.286.286 0 0 1-.415 0L3.32 8.532a.286.286 0 0 1 0-.414l5.63-5.63c.058-.06.118-.06.236-.06h3.852c.178 0 .296.12.296.297v3.793h-.059z"/></g></svg>