<svg xmlns="http://www.w3.org/2000/svg" width="32" height="32" viewBox="0 0 32 32">
    <g fill="#000" fill-rule="nonzero">
        <path d="M22.667 8H1.333C.533 8 0 8.533 0 9.333v21.334C0 31.467.533 32 1.333 32h21.334c.8 0 1.333-.533 1.333-1.333V9.333C24 8.533 23.467 8 22.667 8zm-4 18c0 .4-.267.667-.667.667H6c-.4 0-.667-.267-.667-.667V14c0-.4.267-.667.667-.667h12c.4 0 .667.267.667.667v12z"/>
        <path d="M30.667 0H9.333C8.533 0 8 .533 8 1.333V4c0 .8.533 1.333 1.333 1.333H26c.4 0 .667.267.667.667v16.667c0 .8.533 1.333 1.333 1.333h2.667c.8 0 1.333-.533 1.333-1.333V1.333C32 .533 31.467 0 30.667 0z"/>
    </g>
</svg>
