<svg width="500" height="206" viewBox="0 0 500 206" xmlns="http://www.w3.org/2000/svg"><title>Group</title><g fill="none" fill-rule="evenodd"><path fill="#242422" d="M271.134 80.462V32.134h33.131v8.175h-23.374v11.44h20.174v8.175H280.89v20.538zm38.503-17.506c0-6.483 1.802-11.284 5.407-14.406 3.01-2.594 6.68-3.89 11.01-3.89 4.812 0 8.746 1.579 11.801 4.73 3.055 3.154 4.582 7.513 4.582 13.072 0 4.506-.676 8.05-2.027 10.632-1.35 2.582-3.318 4.587-5.9 6.015-2.583 1.427-5.401 2.143-8.457 2.143-4.9 0-8.864-1.57-11.883-4.714-3.023-3.143-4.533-7.67-4.533-13.582m6.1 0c0 4.485.977 7.84 2.933 10.07 1.956 2.232 4.418 3.346 7.383 3.346 2.945 0 5.395-1.12 7.352-3.36 1.956-2.243 2.935-5.659 2.935-10.252 0-4.33-.985-7.61-2.95-9.842-1.97-2.231-4.415-3.345-7.337-3.345-2.965 0-5.427 1.11-7.383 3.328-1.956 2.221-2.933 5.572-2.933 10.055m33.591 17.506v-35.01h5.338v5.306c1.365-2.481 2.622-4.12 3.777-4.91a6.586 6.586 0 0 1 3.807-1.188c1.998 0 4.032.638 6.1 1.913l-2.045 5.505c-1.45-.857-2.9-1.286-4.353-1.286a5.66 5.66 0 0 0-3.494 1.17c-1.032.78-1.77 1.862-2.208 3.246-.658 2.11-.989 4.42-.989 6.924v18.33h-5.933zm20.34-17.506c0-6.483 1.801-11.284 5.405-14.406 3.011-2.594 6.683-3.89 11.011-3.89 4.815 0 8.748 1.579 11.803 4.73 3.054 3.154 4.582 7.513 4.582 13.072 0 4.506-.675 8.05-2.028 10.632-1.351 2.582-3.319 4.587-5.9 6.015-2.585 1.427-5.402 2.143-8.457 2.143-4.9 0-8.86-1.57-11.884-4.714-3.023-3.143-4.532-7.67-4.532-13.582m6.1 0c0 4.485.976 7.84 2.932 10.07 1.956 2.232 4.418 3.346 7.384 3.346 2.947 0 5.395-1.12 7.353-3.36 1.954-2.243 2.933-5.659 2.933-10.252 0-4.33-.983-7.61-2.95-9.842-1.968-2.231-4.412-3.345-7.336-3.345-2.966 0-5.428 1.11-7.384 3.328-1.956 2.221-2.933 5.572-2.933 10.055m31.285 7.055l5.866-.923c.33 2.353 1.248 4.152 2.754 5.406 1.505 1.254 3.609 1.88 6.315 1.88 2.723 0 4.746-.555 6.063-1.666 1.32-1.109 1.979-2.41 1.979-3.906 0-1.34-.584-2.396-1.748-3.165-.813-.528-2.834-1.198-6.065-2.011-4.351-1.1-7.369-2.048-9.05-2.851-1.681-.802-2.956-1.912-3.824-3.328-.869-1.418-1.302-2.985-1.302-4.699 0-1.56.357-3.006 1.07-4.336a9.605 9.605 0 0 1 2.92-3.313c.922-.681 2.18-1.255 3.773-1.729 1.592-.473 3.302-.71 5.128-.71 2.745 0 5.159.397 7.233 1.187 2.078.792 3.61 1.863 4.601 3.214.987 1.351 1.67 3.158 2.042 5.424l-5.801.79c-.262-1.802-1.027-3.208-2.29-4.22-1.264-1.01-3.05-1.517-5.357-1.517-2.725 0-4.672.452-5.836 1.353-1.166.901-1.746 1.954-1.746 3.166 0 .77.24 1.46.725 2.075.483.637 1.24 1.164 2.275 1.582.591.221 2.34.725 5.24 1.517 4.199 1.12 7.126 2.04 8.785 2.754 1.66.713 2.963 1.752 3.908 3.114.945 1.363 1.418 3.056 1.418 5.077 0 1.979-.578 3.841-1.733 5.587-1.153 1.748-2.817 3.1-4.992 4.056-2.178.956-4.64 1.433-7.386 1.433-4.55 0-8.017-.945-10.399-2.836-2.387-1.887-3.906-4.69-4.566-8.405M271.33 162.897v-47.933h9.758v39.79h24.263v8.143zm38.307-17.504c0-6.485 1.802-11.286 5.407-14.406 3.01-2.594 6.68-3.89 11.01-3.89 4.812 0 8.746 1.577 11.801 4.731 3.055 3.153 4.582 7.51 4.582 13.069 0 4.506-.676 8.051-2.027 10.634-1.35 2.582-3.318 4.587-5.9 6.015-2.583 1.427-5.401 2.143-8.457 2.143-4.9 0-8.864-1.57-11.883-4.716-3.023-3.14-4.533-7.668-4.533-13.58m6.1 0c0 4.483.977 7.84 2.933 10.069 1.956 2.233 4.418 3.347 7.383 3.347 2.945 0 5.395-1.122 7.352-3.362 1.956-2.24 2.935-5.659 2.935-10.252 0-4.33-.985-7.61-2.95-9.84-1.97-2.231-4.415-3.347-7.337-3.347-2.965 0-5.427 1.11-7.383 3.33-1.956 2.22-2.933 5.57-2.933 10.055m56.503 4.681l5.834.756c-.637 4.023-2.269 7.172-4.895 9.447-2.626 2.275-5.85 3.412-9.673 3.412-4.792 0-8.645-1.565-11.556-4.699-2.914-3.131-4.368-7.62-4.368-13.465 0-3.78.626-7.088 1.878-9.924 1.254-2.834 3.16-4.962 5.72-6.378 2.56-1.418 5.345-2.126 8.356-2.126 3.802 0 6.912.96 9.33 2.884s3.966 4.654 4.647 8.193l-5.767.889c-.551-2.351-1.523-4.12-2.918-5.307-1.397-1.187-3.084-1.78-5.06-1.78-2.99 0-5.419 1.072-7.285 3.213-1.87 2.143-2.802 5.532-2.802 10.17 0 4.704.9 8.122 2.703 10.252 1.801 2.133 4.152 3.198 7.055 3.198 2.328 0 4.273-.714 5.834-2.143 1.561-1.427 2.548-3.626 2.967-6.592m33.756 8.504c-2.2 1.869-4.315 3.19-6.347 3.956-2.033.77-4.214 1.155-6.542 1.155-3.847 0-6.804-.939-8.868-2.819-2.067-1.88-3.1-4.278-3.1-7.202 0-1.716.39-3.28 1.172-4.699.779-1.417 1.802-2.555 3.065-3.412 1.261-.857 2.685-1.505 4.269-1.944 1.164-.308 2.922-.605 5.275-.892 4.79-.57 8.317-1.252 10.582-2.044.02-.812.032-1.328.032-1.55 0-2.415-.56-4.12-1.68-5.108-1.518-1.342-3.77-2.011-6.759-2.011-2.792 0-4.853.49-6.18 1.47-1.331.976-2.314 2.707-2.953 5.19l-5.802-.792c.527-2.483 1.395-4.489 2.607-6.015 1.206-1.527 2.954-2.705 5.239-3.529 2.286-.824 4.933-1.235 7.946-1.235 2.987 0 5.416.351 7.285 1.054 1.868.704 3.242 1.59 4.12 2.654.88 1.067 1.494 2.413 1.847 4.039.197 1.011.298 2.835.298 5.473v7.91c0 5.517.126 9.008.378 10.468.254 1.461.752 2.86 1.5 4.202h-6.197c-.616-1.23-1.011-2.67-1.187-4.319zm-.494-13.252c-2.155.88-5.387 1.626-9.693 2.24-2.44.356-4.166.75-5.175 1.19-1.012.439-1.792 1.082-2.342 1.927a5.068 5.068 0 0 0-.823 2.819c0 1.582.598 2.9 1.796 3.956 1.197 1.055 2.95 1.582 5.258 1.582 2.286 0 4.319-.5 6.1-1.5 1.78-1 3.087-2.368 3.923-4.103.637-1.342.956-3.319.956-5.935v-2.176zm15.065 17.571h5.935v-48.328h-5.935zm39.097-11.275l6.132.76c-.968 3.582-2.758 6.36-5.374 8.34-2.615 1.978-5.954 2.965-10.021 2.965-5.12 0-9.18-1.574-12.18-4.729-3.002-3.155-4.5-7.576-4.5-13.267 0-5.891 1.516-10.462 4.55-13.716 3.03-3.252 6.966-4.88 11.802-4.88 4.68 0 8.505 1.596 11.47 4.781 2.967 3.189 4.451 7.67 4.451 13.45 0 .351-.013.88-.032 1.582h-26.109c.218 3.846 1.305 6.792 3.263 8.836 1.957 2.044 4.395 3.065 7.32 3.065 2.175 0 4.032-.57 5.57-1.714 1.536-1.143 2.757-2.967 3.658-5.473m-19.48-9.591h19.547c-.265-2.945-1.012-5.153-2.242-6.626-1.892-2.287-4.342-3.43-7.354-3.43-2.723 0-5.015.912-6.872 2.737-1.857 1.824-2.883 4.263-3.08 7.319m30.689 10.416l5.868-.922c.33 2.351 1.247 4.152 2.754 5.406 1.502 1.252 3.61 1.878 6.313 1.878 2.724 0 4.746-.553 6.065-1.664 1.319-1.109 1.977-2.412 1.977-3.906 0-1.34-.582-2.395-1.746-3.165-.815-.528-2.836-1.198-6.067-2.011-4.35-1.1-7.366-2.05-9.047-2.851-1.684-.802-2.957-1.912-3.825-3.33-.868-1.416-1.303-2.985-1.303-4.697 0-1.561.358-3.008 1.072-4.336a9.602 9.602 0 0 1 2.918-3.313c.922-.681 2.18-1.257 3.775-1.73 1.592-.474 3.3-.709 5.126-.709 2.746 0 5.158.395 7.235 1.187 2.078.79 3.61 1.861 4.599 3.212.988 1.353 1.67 3.16 2.044 5.424l-5.802.792c-.263-1.802-1.026-3.208-2.292-4.22-1.263-1.011-3.05-1.517-5.357-1.517-2.727 0-4.67.45-5.835 1.351-1.165.903-1.745 1.956-1.745 3.164 0 .771.24 1.464.724 2.079.482.637 1.242 1.166 2.274 1.584.594.217 2.34.723 5.243 1.513 4.196 1.122 7.124 2.04 8.784 2.754 1.658.714 2.962 1.752 3.908 3.116.943 1.36 1.415 3.054 1.415 5.077 0 1.977-.575 3.84-1.73 5.587-1.152 1.747-2.82 3.1-4.994 4.056-2.175.954-4.639 1.433-7.383 1.433-4.55 0-8.017-.947-10.401-2.836-2.387-1.89-3.907-4.69-4.567-8.406"/><path fill="#FFF" d="M8.238 88.332H88.29V8.268H8.238z"/><path fill="#242422" d="M32.371 75.792V27.094h33.385v8.236H42.204v11.53h20.33v8.236h-20.33v20.697z"/><path fill="#FFF" d="M117.305 197.403h80.05v-80.064h-80.05z"/><path fill="#242422" d="M141.433 184.664v-48.301h9.832v40.095h24.45v8.206z"/><path d="M96.531.053H.023V96.55h.049l109.022 109.02v.048h96.482v-88.66l.027-7.823L96.531.053zM8.233 8.275h80.064v80.051H8.233V8.275zm100.861 185.673l-97.4-97.398h79.002l18.398 18.383v79.015zM96.508 90.737V11.65l97.471 97.473h-79.086L96.508 90.737zm100.847 106.66h-80.05v-80.053h80.05v80.053z" fill="#000"/></g></svg>