<svg xmlns="http://www.w3.org/2000/svg" width="32" height="29" viewBox="0 0 32 29">
    <path fill="#000" fill-rule="nonzero" d="M5.538 5.6h5.785c.246 0 .492.123.492.37l1.97 3.938c.246.369.615.738 1.107.738h11.57c.369 0 .615.246.615.616v12.307c0 .37-.246.616-.615.616H5.538c-.369 0-.615-.247-.615-.616V6.34c0-.493.246-.739.615-.739zM1.231.677C.492.677 0 1.169 0 1.907v25.847c0 .738.492 1.23 1.23 1.23h29.54c.738 0 1.23-.492 1.23-1.23V6.83c0-.739-.492-1.231-1.23-1.231H17.6c-.246 0-.492-.123-.492-.37l-1.97-3.938c-.246-.369-.615-.738-1.107-.738L1.23.677z"/>
</svg>
