<svg xmlns="http://www.w3.org/2000/svg" width="24" height="24" viewBox="0 0 24 24">
    <g fill="#000" fill-rule="nonzero">
        <path d="M12 24C5.383 24 0 18.617 0 12S5.383 0 12 0s12 5.383 12 12-5.383 12-12 12zm0-20.963c-4.942 0-8.963 4.021-8.963 8.963 0 4.942 4.021 8.963 8.963 8.963 4.942 0 8.963-4.021 8.963-8.963 0-4.942-4.021-8.963-8.963-8.963z"/>
        <g transform="translate(9.992 6.367)">
            <circle cx="1.827" cy="1.43" r="1.425"/>
            <path d="M3.972 11.26H.044V9.355h.72V6.113h-.71V4.207h3.198v5.148h.72z"/>
        </g>
    </g>
</svg>
