<svg xmlns="http://www.w3.org/2000/svg" width="16" height="15" viewBox="0 0 16 15">
    <path fill="#000" fill-rule="nonzero" d="M2.77 2.8h2.892c.123 0 .246.062.246.185l.984 1.969c.123.184.308.37.554.37h5.785c.184 0 .307.122.307.307v6.154c0 .184-.123.307-.307.307H2.769c-.184 0-.307-.123-.307-.307V3.169c0-.246.123-.369.307-.369zM.614.338C.246.338 0 .585 0 .954v12.922c0 .37.246.616.615.616h14.77c.369 0 .615-.246.615-.615V3.415c0-.369-.246-.615-.615-.615H8.8c-.123 0-.246-.062-.246-.185L7.569.646c-.123-.184-.307-.37-.554-.37l-6.4.062z"/>
</svg>
