<svg xmlns="http://www.w3.org/2000/svg" width="24" height="24" viewBox="0 0 24 24">
    <g fill="#000" fill-rule="nonzero">
        <path d="M14.578 15.867l1.244-1.245a.86.86 0 0 0 0-1.244L9.956 7.51a.86.86 0 0 0-1.245 0L7.467 8.756a.86.86 0 0 0 0 1.244l5.866 5.867a.86.86 0 0 0 1.245 0z"/>
        <path d="M4.8 10.356A3.9 3.9 0 0 1 3.644 7.6c0-2.133 1.778-3.911 3.912-3.911a3.9 3.9 0 0 1 2.755 1.155l2.222 2.223a.86.86 0 0 0 1.245 0l1.244-1.245a.86.86 0 0 0 0-1.244L12.8 2.356C11.378.933 9.511.133 7.467.133 3.377.133 0 3.511 0 7.6c0 1.956.8 3.911 2.222 5.333l2.222 2.223a.86.86 0 0 0 1.245 0l1.244-1.245a.86.86 0 0 0 0-1.244L4.8 10.356zM20.978 10.444l-2.222-2.222a.86.86 0 0 0-1.245 0l-1.244 1.245a.86.86 0 0 0 0 1.244l2.222 2.222a3.9 3.9 0 0 1 1.155 2.756c0 2.133-1.777 3.911-3.91 3.911a3.9 3.9 0 0 1-2.756-1.156l-2.222-2.222a.86.86 0 0 0-1.245 0l-1.244 1.245a.86.86 0 0 0 0 1.244l2.222 2.222c1.422 1.423 3.289 2.223 5.333 2.223 4.09 0 7.467-3.378 7.467-7.467a7.897 7.897 0 0 0-2.311-5.245z"/>
    </g>
</svg>
