<svg xmlns="http://www.w3.org/2000/svg" width="14" height="16" viewBox="0 0 14 16">
    <path fill="#000" fill-rule="nonzero" d="M12.923 1.23h-2.77c-.184 0-.307-.122-.307-.307V.615C9.846.246 9.6 0 9.231 0H8c-.37 0-.615.246-.615.615v.308c0 .185-.123.308-.308.308h-.615c-.185 0-.308-.123-.308-.308V.615C6.154.246 5.908 0 5.538 0h-1.23c-.37 0-.616.246-.616.615v.308c0 .185-.123.308-.307.308H.615c-.369 0-.615.246-.615.615v13.539c0 .369.246.615.615.615h12.308c.37 0 .615-.246.615-.615V1.846c0-.37-.246-.615-.615-.615zm-1.846 12c0 .185-.123.308-.308.308h-8c-.184 0-.307-.123-.307-.307V4c0-.185.123-.308.307-.308h.616c.184 0 .307.123.307.308v.308c0 .369.246.615.616.615h1.23c.37 0 .616-.246.616-.615V4c0-.185.123-.308.308-.308h.615c.185 0 .308.123.308.308v.308c0 .369.246.615.615.615h1.23c.37 0 .616-.246.616-.615V4c0-.185.123-.308.308-.308h.615c.185 0 .308.123.308.308v9.23z"/>
</svg>
