<svg xmlns="http://www.w3.org/2000/svg" width="32" height="32" viewBox="0 0 32 32">
    <g fill="#000" fill-rule="nonzero">
        <circle cx="21.807" cy="9.481" r="2.37"/>
        <path d="M30.104 0H16.593c-.356 0-.593.119-.83.356L.356 15.763a1.146 1.146 0 0 0 0 1.66l13.51 13.51a1.146 1.146 0 0 0 1.66 0l15.407-15.407c.237-.237.356-.474.356-.83V1.186C31.289.473 30.815 0 30.104 0zm-3.556 13.037c0 .119-.118.356-.118.474l-11.26 11.26a.573.573 0 0 1-.83 0l-7.703-7.704a.573.573 0 0 1 0-.83l11.26-11.26c.118-.118.236-.118.473-.118h7.704c.356 0 .593.237.593.593v7.585h-.119z"/>
    </g>
</svg>
