<svg xmlns="http://www.w3.org/2000/svg" width="25" height="32" viewBox="0 0 25 32">
    <g fill="#000" fill-rule="nonzero">
        <circle cx="12.308" cy="12.308" r="2.462"/>
        <path d="M12.308 0C5.538 0 0 5.538 0 12.308c0 2.707.862 5.292 2.462 7.384l8.861 11.816c.246.246.615.492.985.492.369 0 .738-.246.984-.492l8.862-11.816c1.6-2.092 2.461-4.554 2.461-7.384C24.615 5.538 19.077 0 12.308 0zm5.907 16.738L12.8 24l-.123.123c-.246.246-.615.123-.862-.123L6.4 16.738c-.985-1.23-1.477-2.83-1.477-4.43 0-4.062 3.323-7.385 7.385-7.385 4.061 0 7.384 3.323 7.384 7.385 0 1.6-.492 3.2-1.477 4.43z"/>
    </g>
</svg>
