<svg xmlns="http://www.w3.org/2000/svg" width="20" height="16" viewBox="0 0 20 16">
    <path fill="#000" fill-rule="nonzero" d="M19.62 1.906a.097.097 0 0 0-.114-.027 7.857 7.857 0 0 1-1.842.559A4.084 4.084 0 0 0 19.101.419a.097.097 0 0 0-.142-.114c-.761.452-1.585.77-2.45.946A4.106 4.106 0 0 0 13.561 0a4.092 4.092 0 0 0-4.009 4.892A11.271 11.271 0 0 1 1.527.766a.097.097 0 0 0-.16.012 4.085 4.085 0 0 0-.553 2.056c0 1.253.57 2.424 1.539 3.198-.5-.06-.987-.217-1.426-.461a.097.097 0 0 0-.146.083v.052c0 1.8 1.186 3.38 2.873 3.905a3.926 3.926 0 0 1-1.358-.02.098.098 0 0 0-.111.125 4.087 4.087 0 0 0 3.548 2.825 7.856 7.856 0 0 1-4.684 1.527c-.314 0-.63-.019-.94-.055a.099.099 0 0 0-.103.064.098.098 0 0 0 .039.115A11.406 11.406 0 0 0 6.214 16c7.167 0 11.45-5.822 11.45-11.45 0-.157-.003-.313-.01-.468a8.152 8.152 0 0 0 1.973-2.06.098.098 0 0 0-.007-.116z"/>
</svg>
