<?xml version="1.0" encoding="UTF-8"?>
<svg width="463px" height="545px" viewBox="0 0 463 545" version="1.1" xmlns="http://www.w3.org/2000/svg" xmlns:xlink="http://www.w3.org/1999/xlink">
    <!-- Generator: Sketch 46.2 (44496) - http://www.bohemiancoding.com/sketch -->
    <title>mapa</title>
    <desc>Created with Sketch.</desc>
    <defs></defs>
    <g id="Page-1" stroke="none" stroke-width="1" fill="none" fill-rule="evenodd">
        <g id="Portada" transform="translate(-648.000000, -440.000000)">
            <g id="BLOQUE-DISTRITOS" transform="translate(0.000000, 376.000000)">
                <g id="mapa" transform="translate(649.000000, 65.000000)">
                    <polygon id="moncloa-aravaca" fill="#FEFEFE" points="62.472 265.7402 62.472 290.5432 100.433 290.5432 118.696 308.8052 118.696 325.2412 144.263 325.2412 144.263 349.2862 130.642 362.9062 130.642 381.5492 138.67 389.5772 138.67 397.0712 153.546 397.0712 169.428 381.1892 186.925 381.1892 195.371 372.7432 204.375 372.7432 204.375 367.5482 208.408 363.5152 213.81 363.5152 218.49 358.8362 211.223 351.5692 211.223 321.4362 222.941 321.4362 216.854 315.3492 216.854 304.5442 222.734 298.6652 222.734 294.4792 204.608 276.3442 175.705 276.3442 169.559 270.1982 162.852 270.1982 158.084 274.9682 129.471 274.9682 124.276 280.1632 94.966 280.1632 80.543 265.7402"></polygon>
                    <polygon id="moncloa-aravaca" stroke="#1D1D1B" stroke-width="3" points="62.472 265.7402 62.472 290.5432 100.433 290.5432 118.696 308.8052 118.696 325.2412 144.263 325.2412 144.263 349.2862 130.642 362.9062 130.642 381.5492 138.67 389.5772 138.67 397.0712 153.546 397.0712 169.428 381.1892 186.925 381.1892 195.371 372.7432 204.375 372.7432 204.375 367.5482 208.408 363.5152 213.81 363.5152 218.49 358.8362 211.223 351.5692 211.223 321.4362 222.941 321.4362 216.854 315.3492 216.854 304.5442 222.734 298.6652 222.734 294.4792 204.608 276.3442 175.705 276.3442 169.559 270.1982 162.852 270.1982 158.084 274.9682 129.471 274.9682 124.276 280.1632 94.966 280.1632 80.543 265.7402"></polygon>
                    <polygon id="fuencarral-el-pardo" fill="#FEFEFE" points="322.924 48.3 322.924 15.988 307.937 1 291.573 1 277.072 15.501 277.072 41.682 221.646 97.109 190.952 97.109 169.078 75.235 152.8 75.235 146.059 68.494 108.42 68.494 108.42 55.988 96.741 55.988 96.741 72.047 89.344 79.444 54.716 79.444 47.132 87.028 30.756 87.028 26.087 82.36 13.83 82.36 4.407 91.783 4.407 104.04 0 108.447 0 127.103 27.737 154.841 27.737 175.503 40.457 188.223 40.457 221.224 61.972 221.224 61.972 266.24 80.043 266.24 94.466 280.663 123.776 280.663 128.971 275.467 157.583 275.467 162.352 270.698 169.059 270.698 175.205 276.843 204.108 276.843 213.539 286.274 219.306 280.508 229.541 280.508 234.814 275.235 247.841 275.235 247.841 264.069 266.761 264.069 266.761 248.871 286.146 229.486 286.146 214.133 286.146 206.999 272.266 193.119 265.21 193.119 265.21 184.977 271.723 178.464 271.413 172.881 257.456 158.924 257.456 139.073 248.384 130.002 248.384 119.301 234.606 105.523 247.011 105.527 269.201 83.337 283.605 83.337 297.815 97.547 297.815 110.977 329.542 110.977 357.572 82.947"></polygon>
                    <polygon id="fuencarral-el-pardo" stroke="#1D1D1B" stroke-width="3" points="323.4241 47.8003 323.4241 15.4883 308.4371 0.5003 292.0731 0.5003 277.5721 15.0013 277.5721 41.1823 222.1461 96.6093 191.4521 96.6093 169.5781 74.7353 153.3001 74.7353 146.5591 67.9943 108.9201 67.9943 108.9201 55.4883 97.2411 55.4883 97.2411 71.5473 89.8441 78.9443 55.2161 78.9443 47.6321 86.5283 31.2561 86.5283 26.5871 81.8603 14.3301 81.8603 4.9071 91.2833 4.9071 103.5403 0.5001 107.9473 0.5001 126.6033 28.2371 154.3413 28.2371 175.0033 40.9571 187.7233 40.9571 220.7243 62.4721 220.7243 62.4721 265.7403 80.5431 265.7403 94.9661 280.1633 124.2761 280.1633 129.4711 274.9673 158.0831 274.9673 162.8521 270.1983 169.5591 270.1983 175.7051 276.3433 204.6081 276.3433 214.0391 285.7743 219.8061 280.0083 230.0411 280.0083 235.3141 274.7353 248.3411 274.7353 248.3411 263.5693 267.2611 263.5693 267.2611 248.3713 286.6461 228.9863 286.6461 213.6333 286.6461 206.4993 272.7661 192.6193 265.7101 192.6193 265.7101 184.4773 272.2231 177.9643 271.9131 172.3813 257.9561 158.4243 257.9561 138.5733 248.8841 129.5023 248.8841 118.8013 235.1061 105.0233 247.5111 105.0273 269.7011 82.8373 284.1051 82.8373 298.3151 97.0473 298.3151 110.4773 330.0421 110.4773 358.0721 82.4473"></polygon>
                    <polygon id="chamartin" fill="#FEFEFE" points="267.9182 332.4053 272.8892 332.4053 281.0692 324.2243 279.5522 322.7083 279.5522 296.7413 267.2612 284.4493 267.2612 263.5693 248.3412 263.5693 248.3502 336.7493 263.5742 336.7493"></polygon>
                    <polygon id="chamartin" stroke="#1D1D1B" stroke-width="3" points="267.9182 332.4053 272.8892 332.4053 281.0692 324.2243 279.5522 322.7083 279.5522 296.7413 267.2612 284.4493 267.2612 263.5693 248.3412 263.5693 248.3502 336.7493 263.5742 336.7493"></polygon>
                    <polygon id="salamanca" fill="#FEFEFE" points="284.4388 368.3301 284.4388 327.5951 281.0698 324.2251 272.8888 332.4051 267.9178 332.4051 263.5748 336.7491 248.3498 336.7491 248.3518 354.4751 243.2888 359.5601 243.2888 364.9611 281.0698 364.9611"></polygon>
                    <polygon id="salamanca" stroke="#1D1D1B" stroke-width="3" points="284.4388 368.3301 284.4388 327.5951 281.0698 324.2251 272.8888 332.4051 267.9178 332.4051 263.5748 336.7491 248.3498 336.7491 248.3518 354.4751 243.2888 359.5601 243.2888 364.9611 281.0698 364.9611"></polygon>
                    <polygon id="retiro" fill="#FEFEFE" points="281.0696 364.9609 243.2886 364.9609 243.2886 385.4549 251.7866 393.9519 257.4516 393.9519 263.5746 400.0749 263.5746 404.5389 266.1966 407.1609 271.9096 401.4489 271.9096 394.5619 277.8406 388.6309 277.8406 377.3749 284.4386 370.7759 284.4386 368.3299"></polygon>
                    <polygon id="retiro" stroke="#1D1D1B" stroke-width="3" points="281.0696 364.9609 243.2886 364.9609 243.2886 385.4549 251.7866 393.9519 257.4516 393.9519 263.5746 400.0749 263.5746 404.5389 266.1966 407.1609 271.9096 401.4489 271.9096 394.5619 277.8406 388.6309 277.8406 377.3749 284.4386 370.7759 284.4386 368.3299"></polygon>
                    <polygon id="tetuan" fill="#FEFEFE" points="222.9412 321.4365 248.3412 321.4365 248.3412 274.7355 235.3142 274.7355 230.0412 280.0075 219.8062 280.0075 214.0332 285.7805 222.7332 294.4795 222.7332 298.6655 216.8542 304.5435 216.8542 315.3495"></polygon>
                    <polygon id="tetuan" stroke="#1D1D1B" stroke-width="3" points="222.9412 321.4365 248.3412 321.4365 248.3412 274.7355 235.3142 274.7355 230.0412 280.0075 219.8062 280.0075 214.0332 285.7805 222.7332 294.4795 222.7332 298.6655 216.8542 304.5435 216.8542 315.3495"></polygon>
                    <polygon id="hortaleza" fill="#FEFEFE" points="267.261 263.5688 283.993 263.5688 278.045 269.5168 278.045 283.0228 282.645 287.6218 282.645 295.4248 298.315 311.0948 298.315 317.4388 353.888 317.4388 353.888 310.3328 344.753 310.3328 324.452 290.0318 324.452 285.7748 328.188 285.7748 328.188 276.7658 338.521 266.4328 338.521 259.0588 346.53 251.0508 352.717 251.0508 357.762 246.0048 357.762 231.8538 346.782 220.8738 301.749 220.8738 294.508 213.6328 286.646 213.6328 286.646 228.9858 267.261 248.3708"></polygon>
                    <polygon id="hortaleza" stroke="#1D1D1B" stroke-width="3" points="267.261 263.5688 283.993 263.5688 278.045 269.5168 278.045 283.0228 282.645 287.6218 282.645 295.4248 298.315 311.0948 298.315 317.4388 353.888 317.4388 353.888 310.3328 344.753 310.3328 324.452 290.0318 324.452 285.7748 328.188 285.7748 328.188 276.7658 338.521 266.4328 338.521 259.0588 346.53 251.0508 352.717 251.0508 357.762 246.0048 357.762 231.8538 346.782 220.8738 301.749 220.8738 294.508 213.6328 286.646 213.6328 286.646 228.9858 267.261 248.3708"></polygon>
                    <polygon id="ciudad-lineal" fill="#FEFEFE" points="322.7366 362.1758 322.7366 353.1708 311.7916 342.2258 311.7916 328.7168 306.1616 323.0868 301.6096 323.0868 298.3186 319.7958 298.3146 311.0948 282.6446 295.4248 282.6446 287.6218 278.0456 283.0228 278.0456 269.5168 283.9936 263.5688 267.2606 263.5688 267.2606 284.4488 279.5516 296.7408 279.5516 322.7078 284.4386 327.5948 284.4386 368.3298 291.5126 368.3298 298.8546 375.6718 332.6626 375.6718 332.6626 372.1028"></polygon>
                    <polygon id="ciudad-lineal" stroke="#1D1D1B" stroke-width="3" points="322.7366 362.1758 322.7366 353.1708 311.7916 342.2258 311.7916 328.7168 306.1616 323.0868 301.6096 323.0868 298.3186 319.7958 298.3146 311.0948 282.6446 295.4248 282.6446 287.6218 278.0456 283.0228 278.0456 269.5168 283.9936 263.5688 267.2606 263.5688 267.2606 284.4488 279.5516 296.7408 279.5516 322.7078 284.4386 327.5948 284.4386 368.3298 291.5126 368.3298 298.8546 375.6718 332.6626 375.6718 332.6626 372.1028"></polygon>
                    <polygon id="barajas" fill="#FEFEFE" points="357.762 231.8535 369.825 231.8535 386.211 215.4665 416.028 215.4665 416.028 230.4365 418.522 230.4365 418.522 236.2565 422.857 240.5915 429.092 240.5915 433.695 245.1935 433.695 254.4285 442.083 262.8165 442.083 283.4095 453.559 283.4095 453.559 290.5355 447.859 296.2365 447.859 303.3625 451.006 306.5095 451.006 310.3705 444.295 310.3705 442.395 312.2705 442.395 317.6155 445.126 320.3625 445.126 322.1735 430.71 322.1735 426.004 317.4675 353.888 317.4675 353.888 310.3325 344.753 310.3325 324.452 290.0325 324.452 285.7745 328.188 285.7745 328.188 276.7655 338.521 266.4325 338.521 259.0585 346.53 251.0505 352.717 251.0505 357.762 246.0045"></polygon>
                    <polygon id="barajas" stroke="#1D1D1B" stroke-width="3" points="357.762 231.8535 369.825 231.8535 386.211 215.4665 416.028 215.4665 416.028 230.4365 418.522 230.4365 418.522 236.2565 422.857 240.5915 429.092 240.5915 433.695 245.1935 433.695 254.4285 442.083 262.8165 442.083 283.4095 453.559 283.4095 453.559 290.5355 447.859 296.2365 447.859 303.3625 451.006 306.5095 451.006 310.3705 444.295 310.3705 442.395 312.2705 442.395 317.6155 445.126 320.3625 445.126 322.1735 430.71 322.1735 426.004 317.4675 353.888 317.4675 353.888 310.3325 344.753 310.3325 324.452 290.0325 324.452 285.7745 328.188 285.7745 328.188 276.7655 338.521 266.4325 338.521 259.0585 346.53 251.0505 352.717 251.0505 357.762 246.0045"></polygon>
                    <polygon id="san-blas-canillejas" fill="#FEFEFE" points="439.9554 322.1738 439.9554 326.6688 432.5584 326.6688 428.2754 330.9508 414.2614 330.9508 407.2544 337.9588 386.4914 337.9588 386.4914 358.2018 378.7054 365.9878 378.7054 378.1868 373.9034 382.9868 364.8194 382.9868 360.6024 378.7708 345.4844 378.7708 345.4844 370.0108 342.1104 370.0108 336.3604 375.6468 332.6624 375.6468 332.6624 372.1028 322.7364 362.1758 322.7364 353.1708 311.7914 342.2258 311.7914 328.7168 306.1614 323.0868 301.6094 323.0868 298.3184 319.7958 298.3184 317.4388 426.0044 317.4388 430.7254 322.1588"></polygon>
                    <polygon id="san-blas-canillejas" stroke="#1D1D1B" stroke-width="3" points="439.9554 322.1738 439.9554 326.6688 432.5584 326.6688 428.2754 330.9508 414.2614 330.9508 407.2544 337.9588 386.4914 337.9588 386.4914 358.2018 378.7054 365.9878 378.7054 378.1868 373.9034 382.9868 364.8194 382.9868 360.6024 378.7708 345.4844 378.7708 345.4844 370.0108 342.1104 370.0108 336.3604 375.6468 332.6624 375.6468 332.6624 372.1028 322.7364 362.1758 322.7364 353.1708 311.7914 342.2258 311.7914 328.7168 306.1614 323.0868 301.6094 323.0868 298.3184 319.7958 298.3184 317.4388 426.0044 317.4388 430.7254 322.1588"></polygon>
                    <polygon id="vicalvaro" fill="#FEFEFE" points="386.4915 358.2021 389.0055 358.2021 389.0055 364.6721 385.2735 368.4041 385.2735 373.9031 389.5345 378.1641 423.5035 378.1641 426.9115 381.5721 436.5955 381.5721 445.8015 372.3671 445.8015 367.8611 460.5005 382.5601 460.5005 412.5081 453.8835 412.5081 448.5125 417.8791 442.9725 412.3401 428.3705 412.3401 428.3705 423.9211 421.8245 430.4681 421.8245 440.3701 418.8875 443.3071 418.8875 453.1261 406.0895 465.9251 397.9905 465.9251 386.0535 453.9861 375.1635 453.9861 358.3115 437.1351 358.3115 427.4461 351.8835 421.0171 344.9515 421.0171 339.0175 415.0841 330.0125 415.0841 326.4595 411.5301 321.9565 411.5301 321.9565 401.0951 328.8385 394.2131 328.8385 387.3311 332.7645 383.4051 332.7645 375.6461 336.3605 375.6461 342.0535 369.9541 345.4845 369.9541 345.4845 378.7701 360.6025 378.7701 364.8195 382.9871 373.9035 382.9871 378.7055 378.1861 378.7055 365.9881"></polygon>
                    <polygon id="vicalvaro" stroke="#1D1D1B" stroke-width="3" points="386.4915 358.2021 389.0055 358.2021 389.0055 364.6721 385.2735 368.4041 385.2735 373.9031 389.5345 378.1641 423.5035 378.1641 426.9115 381.5721 436.5955 381.5721 445.8015 372.3671 445.8015 367.8611 460.5005 382.5601 460.5005 412.5081 453.8835 412.5081 448.5125 417.8791 442.9725 412.3401 428.3705 412.3401 428.3705 423.9211 421.8245 430.4681 421.8245 440.3701 418.8875 443.3071 418.8875 453.1261 406.0895 465.9251 397.9905 465.9251 386.0535 453.9861 375.1635 453.9861 358.3115 437.1351 358.3115 427.4461 351.8835 421.0171 344.9515 421.0171 339.0175 415.0841 330.0125 415.0841 326.4595 411.5301 321.9565 411.5301 321.9565 401.0951 328.8385 394.2131 328.8385 387.3311 332.7645 383.4051 332.7645 375.6461 336.3605 375.6461 342.0535 369.9541 345.4845 369.9541 345.4845 378.7701 360.6025 378.7701 364.8195 382.9871 373.9035 382.9871 378.7055 378.1861 378.7055 365.9881"></polygon>
                    <polygon id="chamberi" fill="#FEFEFE" points="248.3411 321.4365 211.2231 321.4365 211.2231 349.2895 236.3861 349.2895 244.9691 357.8735 248.3521 354.4745"></polygon>
                    <polygon id="chamberi" stroke="#1D1D1B" stroke-width="3" points="248.3411 321.4365 211.2231 321.4365 211.2231 349.2895 236.3861 349.2895 244.9691 357.8735 248.3521 354.4745"></polygon>
                    <polygon id="moratalaz" fill="#FEFEFE" points="332.7649 375.6465 332.7649 383.4055 328.8379 387.3315 328.8379 394.2125 321.9559 401.0945 321.9559 411.5305 312.6969 411.5305 289.8499 388.6835 277.8409 388.6835 277.8409 377.3755 284.4389 370.7765 284.4389 368.3305 291.5129 368.3305 298.8549 375.6715"></polygon>
                    <polygon id="moratalaz" stroke="#1D1D1B" stroke-width="3" points="332.7649 375.6465 332.7649 383.4055 328.8379 387.3315 328.8379 394.2125 321.9559 401.0945 321.9559 411.5305 312.6969 411.5305 289.8499 388.6835 277.8409 388.6835 277.8409 377.3755 284.4389 370.7765 284.4389 368.3305 291.5129 368.3305 298.8549 375.6715"></polygon>
                    <polygon id="puente-de-vallecas" fill="#FFFFFF" points="304.5559 431.6133 330.0199 431.5713 330.0199 415.0773 326.4589 411.5153 312.7109 411.5153 289.8509 388.6553 277.8119 388.6553 271.9059 394.5613 271.9059 401.4453 258.6059 414.7453 258.6059 420.1663 252.9609 425.8103 247.5899 425.8103 247.5899 439.7473 254.9909 447.1473 254.9909 462.8053 273.3639 462.8053"></polygon>
                    <polygon id="puente-de-vallecas" stroke="#1D1D1B" stroke-width="3" points="304.5559 431.6133 330.0199 431.5713 330.0199 415.0773 326.4589 411.5153 312.7109 411.5153 289.8509 388.6553 277.8119 388.6553 271.9059 394.5613 271.9059 401.4453 258.6059 414.7453 258.6059 420.1663 252.9609 425.8103 247.5899 425.8103 247.5899 439.7473 254.9909 447.1473 254.9909 462.8053 273.3639 462.8053"></polygon>
                    <polygon id="villa-de-vallecas" fill="#FEFEFE" points="413.9886 465.4844 413.9886 458.0254 406.0896 465.9234 397.9916 465.9234 386.0526 453.9854 375.1646 453.9854 358.3136 437.1344 358.3136 427.4444 351.8836 421.0134 344.9556 421.0134 339.0176 415.0774 330.0206 415.0774 330.0196 415.0774 330.0196 431.5714 304.5556 431.6134 273.3636 462.8054 254.9906 462.8054 254.9906 465.9604 271.2086 482.1764 271.2086 491.1724 278.4896 491.1724 278.4896 500.3574 283.3166 505.1844 283.3166 512.2774 287.1876 516.1474 295.8586 507.4764 298.2376 507.4764 320.7686 530.0084 330.2836 530.0084 342.3056 542.0314 385.5526 542.0314 385.5526 538.3004 379.0766 538.3004 376.7526 535.9764 376.7526 524.6674 395.6296 505.7904 395.6296 494.9354 417.5546 473.0084 417.5546 465.4844"></polygon>
                    <polygon id="villa-de-vallecas" stroke="#1D1D1B" stroke-width="3" points="413.9886 465.4844 413.9886 458.0254 406.0896 465.9234 397.9916 465.9234 386.0526 453.9854 375.1646 453.9854 358.3136 437.1344 358.3136 427.4444 351.8836 421.0134 344.9556 421.0134 339.0176 415.0774 330.0206 415.0774 330.0196 415.0774 330.0196 431.5714 304.5556 431.6134 273.3636 462.8054 254.9906 462.8054 254.9906 465.9604 271.2086 482.1764 271.2086 491.1724 278.4896 491.1724 278.4896 500.3574 283.3166 505.1844 283.3166 512.2774 287.1876 516.1474 295.8586 507.4764 298.2376 507.4764 320.7686 530.0084 330.2836 530.0084 342.3056 542.0314 385.5526 542.0314 385.5526 538.3004 379.0766 538.3004 376.7526 535.9764 376.7526 524.6674 395.6296 505.7904 395.6296 494.9354 417.5546 473.0084 417.5546 465.4844"></polygon>
                    <polygon id="arganzuela" fill="#FEFEFE" points="263.5745 404.5391 263.5745 400.0751 257.4515 393.9521 251.7845 393.9541 243.2845 385.4551 238.7195 389.9951 219.2865 389.9951 211.0135 381.7231 211.0135 375.5991 204.3855 375.5991 204.3855 397.5681 214.2625 397.6011 242.4725 425.8101 247.5905 425.8101 250.3645 425.8101 252.9615 425.8101 258.6055 420.1661 258.6055 414.7451 266.1925 407.1571"></polygon>
                    <polygon id="arganzuela" stroke="#1D1D1B" stroke-width="3" points="263.5745 404.5391 263.5745 400.0751 257.4515 393.9521 251.7845 393.9541 243.2845 385.4551 238.7195 389.9951 219.2865 389.9951 211.0135 381.7231 211.0135 375.5991 204.3855 375.5991 204.3855 397.5681 214.2625 397.6011 242.4725 425.8101 247.5905 425.8101 250.3645 425.8101 252.9615 425.8101 258.6055 420.1661 258.6055 414.7451 266.1925 407.1571"></polygon>
                    <polygon id="centro" fill="#FEFEFE" points="211.0139 381.7227 219.2869 389.9947 238.7189 389.9947 243.2849 385.4287 243.2849 359.5567 244.9689 357.8727 236.3859 349.2887 211.2229 349.2887 211.2229 351.5697 218.4929 358.8377 213.8099 363.5207 208.4129 363.5207 204.3849 367.5477 204.3849 375.5987 211.0139 375.5987"></polygon>
                    <polygon id="centro" stroke="#1D1D1B" stroke-width="3" points="211.0139 381.7227 219.2869 389.9947 238.7189 389.9947 243.2849 385.4287 243.2849 359.5567 244.9689 357.8727 236.3859 349.2887 211.2229 349.2887 211.2229 351.5697 218.4929 358.8377 213.8099 363.5207 208.4129 363.5207 204.3849 367.5477 204.3849 375.5987 211.0139 375.5987"></polygon>
                    <polygon id="usera" fill="#FEFEFE" points="252.1829 462.8057 254.9909 462.8057 254.9909 447.1477 247.5899 439.7467 247.5899 425.8107 242.4729 425.8107 225.3159 408.6537 204.0529 429.9167 204.0529 456.2307 245.6079 456.2307"></polygon>
                    <polygon id="usera" stroke="#1D1D1B" stroke-width="3" points="252.1829 462.8057 254.9909 462.8057 254.9909 447.1477 247.5899 439.7467 247.5899 425.8107 242.4729 425.8107 225.3159 408.6537 204.0529 429.9167 204.0529 456.2307 245.6079 456.2307"></polygon>
                    <polygon id="villaverde" fill="#FEFEFE" points="283.3167 512.2773 283.3167 505.1843 278.4897 500.3573 278.4897 491.1733 271.2087 491.1733 271.2087 482.1763 254.9907 465.9603 254.9907 462.8053 252.1827 462.8053 245.6077 456.2303 204.0527 456.2303 204.0527 509.9713 218.9447 524.8643 252.4397 524.8643 258.4467 518.8573 273.9207 518.8573 276.6317 516.1453 287.1877 516.1453"></polygon>
                    <polygon id="villaverde" stroke="#1D1D1B" stroke-width="3" points="283.3167 512.2773 283.3167 505.1843 278.4897 500.3573 278.4897 491.1733 271.2087 491.1733 271.2087 482.1763 254.9907 465.9603 254.9907 462.8053 252.1827 462.8053 245.6077 456.2303 204.0527 456.2303 204.0527 509.9713 218.9447 524.8643 252.4397 524.8643 258.4467 518.8573 273.9207 518.8573 276.6317 516.1453 287.1877 516.1453"></polygon>
                    <polygon id="carabanchel" fill="#FEFEFE" points="214.263 397.5684 204.385 397.5684 204.383 393.0114 196.902 393.0114 161.378 428.5364 161.378 436.7114 153.057 445.0324 153.057 452.6724 141.465 464.2644 142.694 465.4924 167.502 465.4924 171.233 461.7614 185.664 461.7614 191.195 456.2304 204.053 456.2304 204.053 429.9174 225.316 408.6534"></polygon>
                    <polygon id="carabanchel" stroke="#1D1D1B" stroke-width="3" points="214.263 397.5684 204.385 397.5684 204.383 393.0114 196.902 393.0114 161.378 428.5364 161.378 436.7114 153.057 445.0324 153.057 452.6724 141.465 464.2644 142.694 465.4924 167.502 465.4924 171.233 461.7614 185.664 461.7614 191.195 456.2304 204.053 456.2304 204.053 429.9174 225.316 408.6534"></polygon>
                    <polygon id="latina" fill="#FEFEFE" points="153.0569 445.0322 161.3779 436.7112 161.3779 428.5362 196.9019 393.0112 204.3829 393.0112 204.3749 372.7432 195.3709 372.7432 186.9249 381.1902 169.4289 381.1902 153.5459 397.0732 138.6709 397.0732 127.3389 408.4052 90.9409 408.4052 84.8149 402.2792 65.3809 402.2792 65.3809 408.8982 75.6609 419.1782 75.6609 429.1782 91.1529 444.6692 91.1529 452.2902 96.3469 452.2902 101.2859 457.2292 112.3389 457.2292 121.5809 466.4712 128.0109 460.0412 137.2419 460.0412 141.4649 464.2642 153.0569 452.6722"></polygon>
                    <polygon id="latina" stroke="#1D1D1B" stroke-width="3" points="153.0569 445.0322 161.3779 436.7112 161.3779 428.5362 196.9019 393.0112 204.3829 393.0112 204.3749 372.7432 195.3709 372.7432 186.9249 381.1902 169.4289 381.1902 153.5459 397.0732 138.6709 397.0732 127.3389 408.4052 90.9409 408.4052 84.8149 402.2792 65.3809 402.2792 65.3809 408.8982 75.6609 419.1782 75.6609 429.1782 91.1529 444.6692 91.1529 452.2902 96.3469 452.2902 101.2859 457.2292 112.3389 457.2292 121.5809 466.4712 128.0109 460.0412 137.2419 460.0412 141.4649 464.2642 153.0569 452.6722"></polygon>
                </g>
            </g>
        </g>
    </g>
</svg>