<svg xmlns="http://www.w3.org/2000/svg" xmlns:xlink="http://www.w3.org/1999/xlink" width="73" height="87" viewBox="0 0 73 87">
    <defs>
        <path id="a" d="M.112 13.333h9.742V.64H.112z"/>
        <path id="c" d="M11.784 13.315V.639H.169v12.676z"/>
    </defs>
    <g fill="none" fill-rule="evenodd">
        <path fill="#000" d="M10.086 74.157L5.91 79.371l-4.198-5.214H0v12.695h1.81v-9.879l3.93 4.908h.335l3.886-4.908v9.879h1.815V74.157zM19.462 74.084l-5.429 12.768h1.86l1.58-3.763h5.39l1.685 3.763h1.851l-5.665-12.768h-1.272zm.62 2.79l2.038 4.598h-3.93l1.891-4.599zM28.727 86.833V74.157h4.26c1.72 0 3.08.259 4.08.776 1.001.519 1.8 1.28 2.388 2.286a6.384 6.384 0 0 1 .887 3.289c0 .848-.163 1.66-.487 2.436a6.137 6.137 0 0 1-1.394 2.044 6.117 6.117 0 0 1-2.143 1.373 6.384 6.384 0 0 1-1.313.376c-.397.064-1.157.096-2.278.096h-4zm4.07-11.058h-2.26v9.441h2.315c.904 0 1.608-.063 2.108-.187s.92-.281 1.254-.472c.335-.19.64-.425.917-.704.892-.909 1.338-2.057 1.338-3.445 0-1.363-.458-2.475-1.373-3.335a4.39 4.39 0 0 0-1.162-.79 4.879 4.879 0 0 0-1.246-.408c-.392-.068-1.02-.1-1.89-.1z"/>
        <g transform="translate(43.473 73.519)">
            <mask id="b" fill="#fff">
                <use xlink:href="#a"/>
            </mask>
            <path fill="#000" d="M.112 13.334V.639H3.28c1.277 0 2.292.317 3.044.953.75.636 1.125 1.498 1.125 2.582 0 .74-.183 1.378-.552 1.917-.368.54-.895.943-1.582 1.208.403.268.799.63 1.185 1.09.386.462.928 1.263 1.629 2.41a24.9 24.9 0 0 0 1.057 1.625l.67.91H7.701l-.553-.836a1.824 1.824 0 0 0-.107-.155l-.352-.5-.56-.928-.605-.99a9.823 9.823 0 0 0-1.027-1.246c-.311-.308-.592-.53-.843-.665-.251-.138-.672-.206-1.262-.206H1.92v5.526H.112zm2.35-11.151h-.54V6.19h.687c.917 0 1.545-.079 1.886-.236.34-.157.605-.396.796-.713.19-.32.284-.68.284-1.086 0-.401-.105-.762-.316-1.086a1.687 1.687 0 0 0-.892-.686c-.382-.133-1.018-.201-1.904-.201z" mask="url(#b)"/>
        </g>
        <path fill="#000" d="M55.667 86.85h1.807V74.157h-1.807z"/>
        <g transform="translate(61.055 73.519)">
            <mask id="d" fill="#fff">
                <use xlink:href="#c"/>
            </mask>
            <path fill="#000" d="M.169 13.315V.639h4.26c1.72 0 3.08.258 4.08.776 1.001.518 1.797 1.28 2.39 2.285a6.383 6.383 0 0 1 .885 3.29 6.241 6.241 0 0 1-1.881 4.48 6.11 6.11 0 0 1-2.145 1.373 6.315 6.315 0 0 1-1.313.376c-.396.064-1.156.096-2.277.096h-4zm4.07-11.059H1.978v9.441h2.316c.905 0 1.606-.062 2.108-.186.5-.124.918-.282 1.253-.472.334-.191.64-.426.918-.704.892-.91 1.338-2.058 1.338-3.446 0-1.362-.458-2.474-1.375-3.334a4.39 4.39 0 0 0-1.162-.791 4.88 4.88 0 0 0-1.243-.408c-.393-.068-1.024-.1-1.892-.1z" mask="url(#d)"/>
        </g>
        <path fill="#000" d="M54.907 10.15H18.37c-.47 0-.85.383-.85.855 0 .473.38.856.85.856h36.537c.47 0 .85-.384.85-.856a.853.853 0 0 0-.85-.855M54.907 14.499H18.37c-.47 0-.85.382-.85.854 0 .474.38.856.85.856h36.537c.47 0 .85-.384.85-.856a.853.853 0 0 0-.85-.854M18.37 14.035h1.9c.47 0 .85-.383.85-.855a.853.853 0 0 0-.85-.856h-1.9c-.47 0-.85.384-.85.856s.38.855.85.855M54.907 12.324h-1.9c-.47 0-.85.383-.85.855 0 .473.38.856.85.856h1.9c.47 0 .85-.383.85-.856a.853.853 0 0 0-.85-.855M38.54 14.035c.47 0 .851-.383.851-.855a.853.853 0 0 0-.85-.856h-3.805a.855.855 0 0 0 0 1.71h3.804zM27.502 12.178l-2.798.967 2.798.967 2.8-.967zM45.774 12.178l-2.799.967 2.8.967 2.797-.967z"/>
        <g fill="#000">
            <path d="M51.292 13.145a.929.929 0 0 0-.925-.932.93.93 0 0 0-.928.932.93.93 0 0 0 .928.932.929.929 0 0 0 .925-.932M42.11 13.145a.929.929 0 0 0-.926-.932.929.929 0 0 0-.927.932c0 .515.414.932.927.932a.929.929 0 0 0 .926-.932M33.021 13.145a.93.93 0 0 0-.928-.932.929.929 0 0 0-.926.932c0 .515.414.932.926.932a.93.93 0 0 0 .928-.932M23.84 13.145a.93.93 0 0 0-.927-.932.93.93 0 0 0-.928.932.93.93 0 0 0 .928.932.93.93 0 0 0 .926-.932M56.73.333c-1.44 0-2.28 1.216-2.495 1.598a5.313 5.313 0 0 0-.683-.091c-.543 0-.835.055-1.027.19.373.243.848.59.943 1.433-.83-.1-1.174-.572-1.415-.946-.134.194-.188.487-.188 1.034 0 .114.004.25.01.366-.611.059-1.207.426-1.46.775.253.35.849.715 1.46.773-.006.116-.01.252-.01.368 0 .546.054.84.188 1.034.272-.42.67-.966 1.747-.966h.16c.005.071.009.139.009.204 0 .947-.437 1.806-1.58 1.806-.763 0-1.165-.562-1.344-.915.124-.176.199-.392.199-.624A1.07 1.07 0 0 0 50.177 5.3a1.077 1.077 0 1 0-.87 1.696c-.179.353-.581.915-1.342.915-1.142 0-1.58-.859-1.58-1.806 0-.065.004-.133.009-.204h.16c1.076 0 1.474.546 1.746.966.134-.194.188-.488.188-1.034 0-.116-.004-.252-.008-.368.61-.058 1.206-.424 1.459-.773-.253-.35-.85-.716-1.459-.775.004-.116.008-.252.008-.366 0-.547-.054-.84-.188-1.034-.242.374-.584.846-1.415.946.096-.843.57-1.19.944-1.434-.194-.134-.486-.189-1.029-.189-.114 0-.25.004-.365.008-.06-.612-.423-1.212-.771-1.465-.35.253-.712.853-.77 1.465a11.356 11.356 0 0 0-.366-.008c-.544 0-.836.055-1.03.19.374.243.848.59.943 1.433-.83-.1-1.173-.572-1.413-.946-.134.194-.187.487-.187 1.034 0 .114.002.25.008.366-.61.059-1.208.426-1.462.775.254.35.851.715 1.462.773a8.51 8.51 0 0 0-.008.368c0 .546.053.84.187 1.034.27-.42.672-.966 1.745-.966h.16c.006.071.009.139.009.204 0 .947-.437 1.806-1.578 1.806-.763 0-1.166-.562-1.345-.915a1.077 1.077 0 0 0-.868-1.696 1.07 1.07 0 0 0-1.067 1.072c0 .232.074.448.198.624-.177.353-.582.915-1.342.915-1.146 0-1.58-.859-1.58-1.806 0-.065.002-.133.008-.204h.16c1.076 0 1.476.546 1.748.966.131-.194.186-.488.186-1.034 0-.116-.004-.252-.008-.368.609-.058 1.207-.424 1.46-.773-.253-.35-.851-.716-1.46-.775.004-.116.008-.252.008-.366 0-.547-.055-.84-.186-1.034-.243.374-.587.846-1.416.946.095-.843.57-1.19.943-1.434-.192-.134-.486-.189-1.028-.189-.115 0-.251.004-.367.008-.06-.612-.422-1.212-.77-1.465-.347.253-.711.853-.77 1.465a11.356 11.356 0 0 0-.366-.008c-.543 0-.836.055-1.03.19.376.243.848.59.944 1.433-.83-.1-1.172-.572-1.415-.946-.134.194-.188.487-.188 1.034 0 .114.004.25.008.366-.61.059-1.206.426-1.458.775.252.35.848.715 1.458.773-.004.116-.008.252-.008.368 0 .546.054.84.188 1.034.272-.42.673-.966 1.747-.966h.16c.004.071.007.139.007.204 0 .947-.435 1.806-1.578 1.806-.763 0-1.168-.566-1.347-.919a1.07 1.07 0 0 0-.868-1.692 1.07 1.07 0 0 0-.866 1.699c-.18.354-.585.912-1.342.912-1.144 0-1.58-.859-1.58-1.806 0-.065.002-.133.008-.204h.159c1.076 0 1.477.546 1.75.966.13-.194.185-.488.185-1.034 0-.116-.003-.252-.007-.368.61-.058 1.207-.424 1.458-.773-.251-.35-.848-.716-1.458-.775.004-.116.007-.252.007-.366 0-.547-.054-.84-.186-1.034-.243.374-.588.846-1.417.946.098-.843.57-1.19.943-1.434-.19-.134-.484-.189-1.027-.189-.115 0-.25.004-.366.008-.059-.612-.424-1.212-.77-1.465-.348.253-.714.853-.772 1.465a11.03 11.03 0 0 0-.364-.008c-.544 0-.836.055-1.03.19.374.243.847.59.944 1.433-.83-.1-1.172-.572-1.415-.946-.134.194-.187.487-.187 1.034 0 .114.002.25.006.366-.609.059-1.206.426-1.457.775.25.35.848.715 1.457.773-.004.116-.006.252-.006.368 0 .546.053.84.187 1.034.27-.42.671-.966 1.746-.966h.161c.005.071.008.139.008.204 0 .947-.438 1.806-1.58 1.806-.761 0-1.165-.562-1.345-.915A1.07 1.07 0 0 0 23.1 5.3c-.297 0-.565.12-.756.313a1.07 1.07 0 0 0-.113 1.383c-.179.353-.584.915-1.344.915-1.143 0-1.58-.859-1.58-1.806 0-.065.003-.133.008-.204h.16c1.075 0 1.475.546 1.747.966.135-.194.188-.488.188-1.034a8.51 8.51 0 0 0-.008-.368c.61-.058 1.207-.424 1.458-.773-.25-.35-.848-.716-1.458-.775.005-.116.008-.252.008-.366 0-.547-.053-.84-.188-1.034-.242.374-.585.846-1.414.946.097-.843.568-1.19.943-1.434-.193-.134-.487-.189-1.031-.189-.137 0-.576.065-.68.09-.216-.38-1.053-1.597-2.495-1.597-.924 0-1.772.455-1.895.578.482 0 1.251.041 1.893.684.903.909.971 1.641.971 4.137 0 2.663 1.36 3.964 3.316 3.964 1.122 0 2.27-.867 2.27-.867s1.143.867 2.269.867c1.192 0 2.243-.921 2.243-.921s1.051.921 2.243.921c1.124 0 2.27-.867 2.27-.867s1.145.867 2.27.867c1.19 0 2.241-.921 2.241-.921s1.051.921 2.245.921c1.122 0 2.27-.867 2.27-.867s1.145.867 2.269.867c1.192 0 2.243-.921 2.243-.921s1.051.921 2.243.921c1.123 0 2.27-.867 2.27-.867s1.145.867 2.27.867c1.954 0 3.312-1.301 3.312-3.964 0-2.496.068-3.228.974-4.137.639-.643 1.41-.684 1.893-.684-.123-.123-.974-.578-1.895-.578M18.099 16.801v30.531c0 9.043 6.262 14.199 18.535 14.199s18.535-5.156 18.535-14.199v-30.53H18.1zm16.81 1.836l1.226.134.499-1.135.498 1.135 1.229-.134-.73 1.002.73 1-1.23-.134-.497 1.135-.5-1.135-1.226.134.73-1-.73-1.002zm-15.642 0l1.227.134.5-1.135.498 1.135 1.227-.134-.729 1.002.729 1-1.227-.134-.497 1.135-.5-1.135-1.228.134.728-1-.728-1.002zm0 15.006l1.227.134.5-1.134.498 1.134 1.227-.134-.729 1.002.729 1-1.227-.133-.497 1.135-.5-1.135-1.228.133.728-1-.728-1.002zm3.677 17.01l-1.226-.134-.499 1.134-.498-1.134-1.229.133.73-1-.73-1.003 1.23.135.497-1.135.499 1.135 1.226-.135-.728 1.003.728 1zm13.69 4.854c-7.092 0-10.261-2.127-11.664-4.456h23.327c-1.402 2.33-4.573 4.456-11.663 4.456zm3.98-7.81l1.255 1.483-.648.221a.806.806 0 0 0-.341.26l-.142.203h-1.46a1.511 1.511 0 0 1-1.508-1.515v-7.024l.879 1.754c.113.222.386.354.612.293l.408-.11.003.35c0 .419.025.787.068 1.107.201 1.49.793 1.984 1.07 2.136l-.218.308c-.109.152-.1.39.022.534zm8.767-1.005c0 .868-.084 2.004-.514 3.172h-2.929l-.99-2.25a2.409 2.409 0 0 0 .332-2.844l-1.151-1.987-1.378-3.935-.1-1.601.307-.17a.56.56 0 0 0 .25-.648l-.093-.273a.544.544 0 0 0-.59-.35l-.445.08-.655-.52a.557.557 0 0 0-.398-.097l-.4.08-.932-.74a.214.214 0 0 0-.31.044l-.544.756a.554.554 0 0 0-.02.566l.831 1.35v2.42h-.592c-.326 0-.59-.353-.59-.79v-.775a.636.636 0 0 0-.158-.387l-.542-.542v-3.098c3.909-.389 6.9-2.552 6.9-5.16 0-2.884-3.655-5.222-8.163-5.222-4.508 0-8.16 2.338-8.16 5.222 0 2.608 2.991 4.771 6.897 5.16V48.35c0 .838-.675 1.515-1.509 1.515h-9.333c-.432-1.168-.515-2.304-.515-3.172V22.475H49.38v24.217zm4.395 3.96l-1.228-.133-.498 1.134-.499-1.134-1.228.133.73-1-.73-1.003 1.228.135.5-1.135.497 1.135 1.228-.135-.729 1.003.729 1zM54 35.645l-1.227-.133-.5 1.135-.497-1.135-1.228.133.729-1-.729-1.002 1.228.134.498-1.134.499 1.134L54 33.643l-.73 1.002.73 1zm0-15.006l-1.227-.134-.5 1.135-.497-1.135-1.228.134.729-1-.729-1.002 1.228.134.498-1.135.499 1.135L54 18.637l-.73 1.002.73 1z"/>
        </g>
    </g>
</svg>
