<svg xmlns="http://www.w3.org/2000/svg" xmlns:xlink="http://www.w3.org/1999/xlink" width="349" height="256" viewBox="0 0 349 256">
    <defs>
        <path id="a" d="M0 256h348.496V.364H0z"/>
    </defs>
    <g fill="none" fill-rule="evenodd">
        <path fill="#FEFEFE" d="M95.804 73.224h66.399V6.814H95.804z"/>
        <path fill="#1E1E1C" d="M115.82 62.823V22.429h27.691v6.833h-19.535v9.562h16.864v6.833h-16.864v17.166z"/>
        <path fill="#FEFEFE" d="M186.269 163.694h66.399v-66.41h-66.399z"/>
        <path fill="#1E1E1C" d="M206.283 153.128v-40.063h8.155v33.257h20.281v6.806z"/>
        <path fill="#010202" d="M88.988 0v80.04h.04l90.43 90.43v.04h80.03V96.97l.02-6.49L169.037 0h-80.05zm6.81 73.219h66.41v-66.4h-66.41v66.4zm73.22 2v-65.6l80.85 80.851h-65.6l-15.25-15.251zm-70.35 4.821h65.53l15.26 15.249v65.541l-80.79-80.79zm87.6 83.649h66.4v-66.4h-66.4v66.4zM0 214.893v40.086h8.094v-17.035h16.734v-6.781H8.094v-9.489h19.387v-6.781z"/>
        <g transform="translate(0 -.364)">
            <path fill="#010202" d="M36.996 240.824c0 3.719.81 6.504 2.434 8.354 1.622 1.85 3.664 2.775 6.125 2.775 2.442 0 4.474-.93 6.097-2.79 1.622-1.86 2.434-4.693 2.434-8.503 0-3.591-.817-6.312-2.447-8.162-1.632-1.85-3.661-2.776-6.084-2.776-2.461 0-4.503.92-6.125 2.762-1.623 1.842-2.434 4.62-2.434 8.34zm-5.06 0c0-5.377 1.496-9.36 4.486-11.95 2.497-2.15 5.54-3.226 9.133-3.226 3.992 0 7.254 1.309 9.789 3.924 2.533 2.616 3.8 6.23 3.8 10.842 0 3.737-.56 6.677-1.681 8.818-1.121 2.143-2.753 3.806-4.895 4.99-2.142 1.185-4.48 1.778-7.013 1.778-4.066 0-7.352-1.303-9.858-3.91-2.507-2.607-3.76-6.362-3.76-11.266zM64.86 255.343v-29.039h4.43v4.402c1.13-2.059 2.173-3.418 3.13-4.074a5.465 5.465 0 0 1 3.158-.984c1.658 0 3.344.53 5.058 1.586l-1.695 4.566c-1.203-.71-2.406-1.066-3.609-1.066a4.693 4.693 0 0 0-2.899.97c-.857.648-1.468 1.545-1.832 2.694-.547 1.75-.82 3.664-.82 5.742v15.203H64.86zM86.789 240.824c0 3.719.81 6.504 2.434 8.354 1.622 1.85 3.664 2.775 6.125 2.775 2.442 0 4.474-.93 6.097-2.79 1.622-1.86 2.434-4.693 2.434-8.503 0-3.591-.817-6.312-2.447-8.162-1.632-1.85-3.661-2.776-6.084-2.776-2.461 0-4.503.92-6.125 2.762-1.623 1.842-2.434 4.62-2.434 8.34m-5.06 0c0-5.377 1.496-9.36 4.486-11.95 2.497-2.15 5.54-3.226 9.133-3.226 3.992 0 7.254 1.309 9.789 3.924 2.533 2.616 3.8 6.23 3.8 10.842 0 3.737-.56 6.677-1.681 8.818-1.121 2.143-2.753 3.806-4.895 4.99-2.142 1.185-4.48 1.778-7.013 1.778-4.066 0-7.352-1.303-9.858-3.91-2.507-2.607-3.76-6.362-3.76-11.266M112.738 246.675l4.867-.766c.274 1.952 1.034 3.446 2.283 4.485 1.248 1.04 2.995 1.558 5.237 1.558 2.26 0 3.937-.46 5.031-1.38 1.094-.92 1.641-2 1.641-3.24 0-1.112-.484-1.987-1.45-2.626-.674-.437-2.35-.993-5.03-1.668-3.61-.91-6.112-1.699-7.507-2.365-1.394-.665-2.452-1.586-3.172-2.762-.72-1.175-1.08-2.474-1.08-3.896 0-1.294.296-2.492.89-3.596a7.967 7.967 0 0 1 2.42-2.748c.765-.564 1.807-1.043 3.13-1.435 1.321-.392 2.738-.588 4.252-.588 2.278 0 4.28.328 6.002.984 1.722.656 2.994 1.545 3.814 2.666.82 1.121 1.385 2.621 1.695 4.498l-4.812.656c-.219-1.494-.853-2.66-1.9-3.5-1.049-.838-2.53-1.257-4.444-1.257-2.26 0-3.874.374-4.84 1.121-.966.748-1.449 1.623-1.449 2.625 0 .638.2 1.213.602 1.722.4.53 1.03.967 1.886 1.313.493.182 1.942.601 4.348 1.258 3.482.93 5.91 1.691 7.287 2.283 1.376.593 2.456 1.454 3.24 2.584.784 1.131 1.176 2.534 1.176 4.211 0 1.64-.478 3.185-1.435 4.634-.957 1.45-2.338 2.571-4.143 3.364-1.805.793-3.847 1.19-6.125 1.19-3.773 0-6.649-.784-8.627-2.352-1.978-1.568-3.24-3.892-3.787-6.973M158.867 255.343v-39.758h8.094v33.004h20.125v6.754zM195.699 240.824c0 3.719.811 6.504 2.434 8.354 1.622 1.85 3.664 2.775 6.125 2.775 2.442 0 4.474-.93 6.097-2.79 1.622-1.86 2.434-4.693 2.434-8.503 0-3.591-.817-6.312-2.447-8.162-1.632-1.85-3.661-2.776-6.084-2.776-2.461 0-4.503.92-6.125 2.762-1.623 1.842-2.434 4.62-2.434 8.34m-5.059 0c0-5.377 1.495-9.36 4.485-11.95 2.497-2.15 5.541-3.226 9.133-3.226 3.992 0 7.254 1.309 9.789 3.924 2.533 2.616 3.8 6.23 3.8 10.842 0 3.737-.56 6.677-1.681 8.818-1.121 2.143-2.753 3.806-4.895 4.99-2.142 1.185-4.48 1.778-7.013 1.778-4.066 0-7.352-1.303-9.858-3.91-2.507-2.607-3.76-6.362-3.76-11.266M242.566 244.707l4.84.629c-.529 3.336-1.883 5.947-4.06 7.834-2.179 1.887-4.854 2.83-8.026 2.83-3.975 0-7.169-1.3-9.584-3.897-2.416-2.597-3.623-6.32-3.623-11.17 0-3.134.52-5.878 1.558-8.23 1.04-2.351 2.621-4.115 4.745-5.291 2.123-1.176 4.433-1.764 6.931-1.764 3.154 0 5.733.798 7.74 2.393 2.003 1.596 3.29 3.86 3.854 6.795l-4.785.738c-.456-1.95-1.263-3.418-2.42-4.402-1.158-.985-2.557-1.477-4.197-1.477-2.48 0-4.494.889-6.043 2.666-1.55 1.778-2.325 4.59-2.325 8.436 0 3.9.748 6.736 2.243 8.504 1.494 1.768 3.445 2.652 5.851 2.652 1.932 0 3.545-.592 4.84-1.777 1.294-1.185 2.114-3.008 2.461-5.47M270.156 240.77c-1.787.728-4.467 1.35-8.039 1.858-2.024.292-3.455.62-4.293.985-.839.365-1.486.898-1.941 1.6a4.206 4.206 0 0 0-.684 2.337c0 1.313.496 2.407 1.49 3.282.993.875 2.447 1.312 4.362 1.312 1.895 0 3.582-.414 5.058-1.244 1.477-.829 2.561-1.964 3.254-3.404.528-1.112.793-2.752.793-4.922v-1.805zm.41 10.991c-1.823 1.55-3.578 2.644-5.264 3.281-1.686.638-3.496.957-5.427.957-3.191 0-5.643-.779-7.356-2.337-1.714-1.559-2.57-3.55-2.57-5.975 0-1.422.323-2.72.971-3.897.646-1.175 1.494-2.119 2.543-2.83 1.047-.71 2.228-1.248 3.541-1.613.965-.255 2.423-.5 4.375-.738 3.973-.474 6.899-1.039 8.777-1.695.018-.674.027-1.103.027-1.286 0-2.005-.464-3.418-1.394-4.238-1.258-1.11-3.127-1.668-5.606-1.668-2.315 0-4.024.406-5.127 1.217-1.103.811-1.919 2.247-2.447 4.307l-4.812-.657c.437-2.059 1.157-3.722 2.16-4.99 1.002-1.267 2.451-2.242 4.347-2.926 1.896-.683 4.092-1.025 6.59-1.025 2.479 0 4.493.292 6.043.875 1.549.584 2.689 1.317 3.418 2.201.729.885 1.239 2.001 1.531 3.35.165.84.247 2.351.247 4.54v6.561c0 4.576.104 7.47.314 8.682a10.916 10.916 0 0 0 1.244 3.486h-5.14c-.511-1.02-.839-2.215-.985-3.582z"/>
            <mask id="b" fill="#fff">
                <use xlink:href="#a"/>
            </mask>
            <path fill="#010202" d="M282.652 255.343h4.922v-40.086h-4.922zM298.922 238.035h16.215c-.22-2.442-.84-4.274-1.86-5.496-1.568-1.896-3.6-2.844-6.097-2.844-2.261 0-4.161.757-5.701 2.27-1.541 1.513-2.393 3.537-2.557 6.07m16.16 7.957l5.086.629c-.803 2.972-2.288 5.277-4.457 6.918-2.17 1.64-4.94 2.46-8.312 2.46-4.248 0-7.616-1.307-10.104-3.923-2.488-2.615-3.732-6.284-3.732-11.006 0-4.885 1.257-8.677 3.773-11.375 2.516-2.697 5.778-4.047 9.789-4.047 3.883 0 7.055 1.323 9.516 3.965 2.46 2.644 3.69 6.362 3.69 11.156 0 .292-.01.73-.026 1.313h-21.656c.18 3.19 1.084 5.633 2.707 7.328 1.622 1.695 3.645 2.543 6.07 2.543 1.805 0 3.345-.474 4.62-1.422 1.276-.947 2.288-2.461 3.036-4.54M324.379 246.675l4.867-.766c.274 1.952 1.034 3.446 2.283 4.485 1.248 1.04 2.995 1.558 5.237 1.558 2.259 0 3.937-.46 5.03-1.38 1.095-.92 1.642-2 1.642-3.24 0-1.112-.484-1.987-1.45-2.626-.674-.437-2.351-.993-5.031-1.668-3.61-.91-6.111-1.699-7.506-2.365-1.394-.665-2.452-1.586-3.172-2.762-.72-1.175-1.08-2.474-1.08-3.896 0-1.294.296-2.492.889-3.596a7.967 7.967 0 0 1 2.42-2.748c.766-.564 1.808-1.043 3.13-1.435 1.322-.392 2.739-.588 4.253-.588 2.278 0 4.279.328 6.002.984 1.722.656 2.994 1.545 3.814 2.666.82 1.121 1.385 2.621 1.695 4.498l-4.812.656c-.22-1.494-.853-2.66-1.9-3.5-1.05-.838-2.53-1.257-4.444-1.257-2.261 0-3.874.374-4.84 1.121-.966.748-1.45 1.623-1.45 2.625 0 .638.2 1.213.603 1.722.4.53 1.029.967 1.886 1.313.493.182 1.942.601 4.348 1.258 3.482.93 5.91 1.691 7.287 2.283 1.376.593 2.456 1.454 3.24 2.584.784 1.131 1.176 2.534 1.176 4.211 0 1.64-.478 3.185-1.435 4.634-.957 1.45-2.338 2.571-4.143 3.364-1.805.793-3.847 1.19-6.125 1.19-3.773 0-6.65-.784-8.627-2.352-1.978-1.568-3.24-3.892-3.787-6.973" mask="url(#b)"/>
        </g>
    </g>
</svg>
