<?xml version="1.0" encoding="UTF-8"?>
<svg width="500px" height="206px" viewBox="0 0 500 206" version="1.1" xmlns="http://www.w3.org/2000/svg" xmlns:xlink="http://www.w3.org/1999/xlink">
    <!-- Generator: Sketch 47 (45396) - http://www.bohemiancoding.com/sketch -->
    <title>Group</title>
    <desc>Created with Sketch.</desc>
    <defs></defs>
    <g id="Page-1" stroke="none" stroke-width="1" fill="none" fill-rule="evenodd">
        <g id="AAFF-base-Foros-Locales-noviembre" transform="translate(-385.000000, -595.000000)">
            <g id="Group" transform="translate(385.000000, 595.000000)">
                <polygon id="Fill-2" fill="#242422" points="271.133588 80.4618321 271.133588 32.1335878 304.265267 32.1335878 304.265267 40.3091603 280.891221 40.3091603 280.891221 51.7480916 301.064885 51.7480916 301.064885 59.9236641 280.891221 59.9236641 280.891221 80.4618321"></polygon>
                <path d="M309.637405,62.9561069 C309.637405,56.4732824 311.438931,51.6717557 315.043893,48.5496183 C318.053435,45.9561069 321.723282,44.6603053 326.053435,44.6603053 C330.866412,44.6603053 334.799618,46.2385496 337.854962,49.389313 C340.910305,52.5438931 342.437023,56.9026718 342.437023,62.4618321 C342.437023,66.9675573 341.76145,70.5114504 340.410305,73.0935115 C339.05916,75.6755725 337.091603,77.6812977 334.509542,79.1087786 C331.927481,80.5362595 329.108779,81.2519084 326.053435,81.2519084 C321.152672,81.2519084 317.188931,79.6812977 314.169847,76.5381679 C311.146947,73.3950382 309.637405,68.8683206 309.637405,62.9561069 M315.736641,62.9561069 C315.736641,67.4408397 316.71374,70.7958015 318.669847,73.0267176 C320.625954,75.2576336 323.087786,76.3721374 326.053435,76.3721374 C328.998092,76.3721374 331.448473,75.2519084 333.40458,73.0114504 C335.360687,70.769084 336.339695,67.3530534 336.339695,62.759542 C336.339695,58.4293893 335.354962,55.1507634 333.389313,52.9179389 C331.419847,50.6870229 328.975191,49.5725191 326.053435,49.5725191 C323.087786,49.5725191 320.625954,50.6832061 318.669847,52.9007634 C316.71374,55.1221374 315.736641,58.4732824 315.736641,62.9561069" id="Fill-3" fill="#242422"></path>
                <path d="M349.328244,80.4618321 L349.328244,45.4522901 L354.666031,45.4522901 L354.666031,50.7576336 C356.030534,48.2767176 357.288168,46.6374046 358.442748,45.8473282 C359.597328,45.0553435 360.866412,44.6603053 362.25,44.6603053 C364.248092,44.6603053 366.282443,45.2977099 368.349237,46.5725191 L366.305344,52.0782443 C364.854962,51.221374 363.40458,50.7919847 361.95229,50.7919847 C360.65458,50.7919847 359.492366,51.1832061 358.458015,51.9618321 C357.425573,52.7423664 356.688931,53.8244275 356.25,55.2080153 C355.591603,57.3187023 355.26145,59.6278626 355.26145,62.1316794 L355.26145,80.4618321 L349.328244,80.4618321 Z" id="Fill-4" fill="#242422"></path>
                <path d="M369.667939,62.9561069 C369.667939,56.4732824 371.469466,51.6717557 375.072519,48.5496183 C378.083969,45.9561069 381.755725,44.6603053 386.083969,44.6603053 C390.898855,44.6603053 394.832061,46.2385496 397.887405,49.389313 C400.94084,52.5438931 402.469466,56.9026718 402.469466,62.4618321 C402.469466,66.9675573 401.793893,70.5114504 400.44084,73.0935115 C399.089695,75.6755725 397.122137,77.6812977 394.540076,79.1087786 C391.956107,80.5362595 389.139313,81.2519084 386.083969,81.2519084 C381.183206,81.2519084 377.223282,79.6812977 374.200382,76.5381679 C371.177481,73.3950382 369.667939,68.8683206 369.667939,62.9561069 M375.767176,62.9561069 C375.767176,67.4408397 376.744275,70.7958015 378.700382,73.0267176 C380.656489,75.2576336 383.118321,76.3721374 386.083969,76.3721374 C389.030534,76.3721374 391.479008,75.2519084 393.437023,73.0114504 C395.391221,70.769084 396.370229,67.3530534 396.370229,62.759542 C396.370229,58.4293893 395.387405,55.1507634 393.419847,52.9179389 C391.45229,50.6870229 389.007634,49.5725191 386.083969,49.5725191 C383.118321,49.5725191 380.656489,50.6832061 378.700382,52.9007634 C376.744275,55.1221374 375.767176,58.4732824 375.767176,62.9561069" id="Fill-5" fill="#242422"></path>
                <path d="M407.051527,70.0114504 L412.917939,69.0877863 C413.248092,71.4408397 414.166031,73.240458 415.671756,74.4942748 C417.177481,75.7480916 419.280534,76.3740458 421.986641,76.3740458 C424.709924,76.3740458 426.732824,75.8187023 428.049618,74.7080153 C429.370229,73.5992366 430.028626,72.2977099 430.028626,70.8015267 C430.028626,69.4618321 429.444656,68.4064885 428.280534,67.6374046 C427.467557,67.1087786 425.446565,66.4389313 422.215649,65.6259542 C417.864504,64.5267176 414.847328,63.5782443 413.166031,62.7748092 C411.484733,61.9732824 410.209924,60.8625954 409.341603,59.4465649 C408.473282,58.028626 408.040076,56.4618321 408.040076,54.7480916 C408.040076,53.1889313 408.396947,51.7423664 409.110687,50.4122137 C409.824427,49.0839695 410.79771,47.9790076 412.030534,47.0992366 C412.95229,46.4179389 414.209924,45.8435115 415.803435,45.370229 C417.395038,44.8969466 419.104962,44.6603053 420.931298,44.6603053 C423.675573,44.6603053 426.089695,45.0572519 428.164122,45.8473282 C430.242366,46.639313 431.774809,47.7099237 432.765267,49.0610687 C433.751908,50.4122137 434.435115,52.2194656 434.807252,54.4847328 L429.005725,55.2748092 C428.744275,53.4732824 427.979008,52.0667939 426.715649,51.0553435 C425.45229,50.0458015 423.666031,49.5381679 421.358779,49.5381679 C418.633588,49.5381679 416.687023,49.990458 415.522901,50.8912214 C414.35687,51.7919847 413.776718,52.8454198 413.776718,54.0572519 C413.776718,54.8263359 414.017176,55.5171756 414.501908,56.1316794 C414.984733,56.769084 415.742366,57.2958015 416.776718,57.7137405 C417.368321,57.9351145 419.116412,58.4389313 422.017176,59.230916 C426.215649,60.351145 429.14313,61.2709924 430.801527,61.9847328 C432.461832,62.6984733 433.765267,63.7366412 434.709924,65.0992366 C435.65458,66.4618321 436.127863,68.1545802 436.127863,70.1755725 C436.127863,72.1545802 435.549618,74.0171756 434.395038,75.7633588 C433.242366,77.5114504 431.578244,78.8625954 429.402672,79.8187023 C427.225191,80.7748092 424.763359,81.2519084 422.017176,81.2519084 C417.467557,81.2519084 414,80.3072519 411.618321,78.4160305 C409.230916,76.528626 407.711832,73.7251908 407.051527,70.0114504" id="Fill-6" fill="#242422"></path>
                <polygon id="Fill-7" fill="#242422" points="271.330153 162.896947 271.330153 114.96374 281.087786 114.96374 281.087786 154.753817 305.351145 154.753817 305.351145 162.896947"></polygon>
                <path d="M309.637405,145.39313 C309.637405,138.908397 311.438931,134.10687 315.043893,130.986641 C318.053435,128.39313 321.723282,127.097328 326.053435,127.097328 C330.866412,127.097328 334.799618,128.673664 337.854962,131.828244 C340.910305,134.980916 342.437023,139.337786 342.437023,144.896947 C342.437023,149.402672 341.76145,152.948473 340.410305,155.530534 C339.05916,158.112595 337.091603,160.118321 334.509542,161.545802 C331.927481,162.973282 329.108779,163.688931 326.053435,163.688931 C321.152672,163.688931 317.188931,162.118321 314.169847,158.973282 C311.146947,155.832061 309.637405,151.305344 309.637405,145.39313 M315.736641,145.39313 C315.736641,149.875954 316.71374,153.232824 318.669847,155.461832 C320.625954,157.694656 323.087786,158.80916 326.053435,158.80916 C328.998092,158.80916 331.448473,157.687023 333.40458,155.446565 C335.360687,153.206107 336.339695,149.788168 336.339695,145.194656 C336.339695,140.864504 335.354962,137.585878 333.389313,135.354962 C331.419847,133.124046 328.975191,132.007634 326.053435,132.007634 C323.087786,132.007634 320.625954,133.118321 318.669847,135.337786 C316.71374,137.557252 315.736641,140.908397 315.736641,145.39313" id="Fill-8" fill="#242422"></path>
                <path d="M372.240458,150.074427 L378.074427,150.830153 C377.437023,154.853053 375.805344,158.001908 373.179389,160.276718 C370.553435,162.551527 367.328244,163.688931 363.505725,163.688931 C358.71374,163.688931 354.860687,162.124046 351.950382,158.990458 C349.03626,155.858779 347.582061,151.370229 347.582061,145.524809 C347.582061,141.744275 348.208015,138.437023 349.459924,135.601145 C350.71374,132.767176 352.620229,130.639313 355.179389,129.223282 C357.740458,127.805344 360.524809,127.097328 363.53626,127.097328 C367.337786,127.097328 370.448473,128.057252 372.866412,129.980916 C375.284351,131.90458 376.832061,134.635496 377.513359,138.173664 L371.746183,139.062977 C371.194656,136.711832 370.223282,134.942748 368.828244,133.755725 C367.431298,132.568702 365.744275,131.975191 363.767176,131.975191 C360.778626,131.975191 358.349237,133.04771 356.482824,135.188931 C354.612595,137.332061 353.681298,140.721374 353.681298,145.358779 C353.681298,150.062977 354.580153,153.480916 356.383588,155.610687 C358.185115,157.744275 360.53626,158.80916 363.438931,158.80916 C365.767176,158.80916 367.711832,158.09542 369.272901,156.666031 C370.833969,155.23855 371.820611,153.040076 372.240458,150.074427" id="Fill-9" fill="#242422"></path>
                <path d="M405.996183,158.578244 C403.795802,160.446565 401.681298,161.767176 399.648855,162.534351 C397.616412,163.303435 395.435115,163.688931 393.10687,163.688931 C389.259542,163.688931 386.303435,162.75 384.23855,160.870229 C382.171756,158.990458 381.139313,156.591603 381.139313,153.667939 C381.139313,151.95229 381.528626,150.387405 382.311069,148.969466 C383.089695,147.551527 384.112595,146.414122 385.375954,145.557252 C386.637405,144.700382 388.061069,144.051527 389.645038,143.612595 C390.80916,143.305344 392.566794,143.007634 394.919847,142.721374 C399.709924,142.150763 403.236641,141.469466 405.501908,140.677481 C405.522901,139.864504 405.534351,139.349237 405.534351,139.127863 C405.534351,136.711832 404.973282,135.007634 403.853053,134.019084 C402.335878,132.677481 400.083969,132.007634 397.09542,132.007634 C394.303435,132.007634 392.242366,132.498092 390.914122,133.477099 C389.583969,134.454198 388.601145,136.185115 387.961832,138.667939 L382.160305,137.875954 C382.687023,135.39313 383.555344,133.387405 384.767176,131.860687 C385.973282,130.333969 387.721374,129.156489 390.005725,128.332061 C392.291985,127.507634 394.938931,127.097328 397.95229,127.097328 C400.938931,127.097328 403.368321,127.448473 405.236641,128.150763 C407.104962,128.854962 408.479008,129.740458 409.35687,130.805344 C410.236641,131.872137 410.851145,133.217557 411.204198,134.843511 C411.400763,135.854962 411.501908,137.679389 411.501908,140.316794 L411.501908,148.227099 C411.501908,153.744275 411.627863,157.234733 411.879771,158.694656 C412.133588,160.156489 412.631679,161.555344 413.379771,162.896947 L407.183206,162.896947 C406.566794,161.667939 406.171756,160.227099 405.996183,158.578244 L405.996183,158.578244 Z M405.501908,145.326336 C403.347328,146.206107 400.114504,146.95229 395.80916,147.566794 C393.368321,147.921756 391.64313,148.316794 390.633588,148.755725 C389.622137,149.194656 388.841603,149.837786 388.291985,150.683206 C387.742366,151.530534 387.469466,152.469466 387.469466,153.501908 C387.469466,155.083969 388.066794,156.402672 389.265267,157.458015 C390.461832,158.513359 392.215649,159.040076 394.522901,159.040076 C396.80916,159.040076 398.841603,158.540076 400.622137,157.540076 C402.402672,156.540076 403.709924,155.171756 404.545802,153.437023 C405.183206,152.09542 405.501908,150.118321 405.501908,147.501908 L405.501908,145.326336 Z" id="Fill-10" fill="#242422"></path>
                <polygon id="Fill-11" fill="#242422" points="420.566794 162.896947 426.501565 162.896947 426.501565 114.568702 420.566794 114.568702"></polygon>
                <path d="M459.664122,151.622137 L465.795802,152.381679 C464.828244,155.96374 463.038168,158.742366 460.421756,160.721374 C457.807252,162.700382 454.467557,163.687023 450.400763,163.687023 C445.280534,163.687023 441.221374,162.112595 438.221374,158.958015 C435.219466,155.803435 433.721374,151.381679 433.721374,145.69084 C433.721374,139.799618 435.236641,135.229008 438.270992,131.975191 C441.301527,128.723282 445.236641,127.09542 450.072519,127.09542 C454.753817,127.09542 458.578244,128.69084 461.543893,131.875954 C464.509542,135.064885 465.994275,139.545802 465.994275,145.326336 C465.994275,145.677481 465.980916,146.206107 465.961832,146.908397 L439.853053,146.908397 C440.070611,150.753817 441.158397,153.700382 443.116412,155.744275 C445.072519,157.788168 447.51145,158.80916 450.435115,158.80916 C452.610687,158.80916 454.467557,158.23855 456.005725,157.09542 C457.541985,155.95229 458.763359,154.127863 459.664122,151.622137 M440.183206,142.030534 L459.730916,142.030534 C459.465649,139.085878 458.719466,136.877863 457.48855,135.40458 C455.597328,133.118321 453.146947,131.975191 450.135496,131.975191 C447.412214,131.975191 445.120229,132.887405 443.263359,134.711832 C441.406489,136.53626 440.379771,138.975191 440.183206,142.030534" id="Fill-12" fill="#242422"></path>
                <path d="M470.872137,152.446565 L476.740458,151.524809 C477.070611,153.875954 477.986641,155.677481 479.494275,156.931298 C480.996183,158.183206 483.103053,158.80916 485.807252,158.80916 C488.530534,158.80916 490.553435,158.255725 491.872137,157.145038 C493.19084,156.03626 493.849237,154.732824 493.849237,153.23855 C493.849237,151.898855 493.267176,150.843511 492.103053,150.074427 C491.288168,149.545802 489.267176,148.875954 486.03626,148.062977 C481.685115,146.96374 478.669847,146.013359 476.98855,145.211832 C475.305344,144.410305 474.032443,143.299618 473.164122,141.881679 C472.295802,140.465649 471.860687,138.896947 471.860687,137.185115 C471.860687,135.624046 472.219466,134.177481 472.933206,132.849237 C473.646947,131.520992 474.620229,130.414122 475.851145,129.53626 C476.772901,128.854962 478.030534,128.278626 479.625954,127.805344 C481.217557,127.332061 482.925573,127.097328 484.751908,127.097328 C487.498092,127.097328 489.910305,127.492366 491.986641,128.284351 C494.064885,129.074427 495.597328,130.145038 496.585878,131.496183 C497.574427,132.849237 498.255725,134.656489 498.629771,136.919847 L492.828244,137.711832 C492.564885,135.910305 491.801527,134.503817 490.53626,133.492366 C489.272901,132.480916 487.486641,131.975191 485.179389,131.975191 C482.45229,131.975191 480.509542,132.425573 479.343511,133.326336 C478.179389,134.229008 477.599237,135.282443 477.599237,136.490458 C477.599237,137.26145 477.839695,137.954198 478.322519,138.568702 C478.805344,139.206107 479.564885,139.734733 480.597328,140.152672 C481.19084,140.370229 482.937023,140.875954 485.839695,141.666031 C490.03626,142.788168 492.96374,143.706107 494.624046,144.419847 C496.282443,145.133588 497.585878,146.171756 498.532443,147.53626 C499.475191,148.896947 499.946565,150.589695 499.946565,152.612595 C499.946565,154.589695 499.372137,156.45229 498.217557,158.200382 C497.064885,159.946565 495.396947,161.299618 493.223282,162.255725 C491.04771,163.209924 488.583969,163.688931 485.839695,163.688931 C481.290076,163.688931 477.822519,162.742366 475.438931,160.853053 C473.051527,158.96374 471.532443,156.162214 470.872137,152.446565" id="Fill-13" fill="#242422"></path>
                <polygon id="Fill-14" fill="#FFFFFF" points="8.23835878 88.3320611 88.290458 88.3320611 88.290458 8.26812977 8.23835878 8.26812977"></polygon>
                <polygon id="Fill-15" fill="#242422" points="32.371374 75.7919847 32.371374 27.0935115 65.7564885 27.0935115 65.7564885 35.3301527 42.2041985 35.3301527 42.2041985 46.8587786 62.5349237 46.8587786 62.5349237 55.0954198 42.2041985 55.0954198 42.2041985 75.7919847"></polygon>
                <polygon id="Fill-16" fill="#FFFFFF" points="117.30458 197.402672 197.354962 197.402672 197.354962 117.33874 117.30458 117.33874"></polygon>
                <polygon id="Fill-17" fill="#242422" points="141.433206 184.664122 141.433206 136.362595 151.265267 136.362595 151.265267 176.458015 175.715649 176.458015 175.715649 184.664122"></polygon>
                <path d="M96.5311069,0.0534351145 L0.0229007634,0.0534351145 L0.0229007634,96.5496183 L0.0717557252,96.5496183 L109.094084,205.570611 L109.094084,205.618321 L205.576336,205.618321 L205.576336,116.958015 L205.603053,109.135496 L96.5311069,0.0534351145 Z M8.23339695,8.27480916 L88.2971374,8.27480916 L88.2971374,88.3263359 L8.23339695,88.3263359 L8.23339695,8.27480916 Z M109.094084,193.948473 L11.6938931,96.5496183 L90.6956107,96.5496183 L109.094084,114.933206 L109.094084,193.948473 Z M96.5076336,90.7366412 L96.5076336,11.6507634 L193.979008,109.124046 L114.892557,109.124046 L96.5076336,90.7366412 Z M197.354962,197.396947 L117.30458,197.396947 L117.30458,117.343511 L197.354962,117.343511 L197.354962,197.396947 Z" id="Fill-18" fill="#000000"></path>
            </g>
        </g>
    </g>
</svg>